<?xml version="1.0" encoding="UTF-8" standalone="no"?>
<!DOCTYPE svg PUBLIC "-//W3C//DTD SVG 1.1//EN" "http://www.w3.org/Graphics/SVG/1.1/DTD/svg11.dtd">
<svg width="100%" height="100%" viewBox="0 0 240 71" version="1.1" xmlns="http://www.w3.org/2000/svg" xmlns:xlink="http://www.w3.org/1999/xlink" xml:space="preserve" xmlns:serif="http://www.serif.com/" style="fill-rule:evenodd;clip-rule:evenodd;stroke-linejoin:round;stroke-miterlimit:2;">
    <g transform="matrix(1,0,0,1,-110,-5934)">
        <g transform="matrix(1,0,0,1,0,1215)">
            <g transform="matrix(0.119311,0,0,0.119311,59.6971,4627.55)">
                <g transform="matrix(4.16667,0,0,4.16667,2179.92,882.367)">
                    <path d="M0,4.979L18.613,4.979C19.008,4.979 19.343,4.688 19.399,4.297L19.966,0.906C20.034,0.428 19.663,0 19.181,0L0,0C-0.438,0 -0.794,0.355 -0.794,0.794L-0.794,4.185C-0.794,4.624 -0.438,4.979 0,4.979" style="fill:white;fill-rule:nonzero;"/>
                </g>
                <g transform="matrix(4.16667,0,0,4.16667,2176.61,922.019)">
                    <path d="M0,3.969C0,4.407 0.355,4.762 0.794,4.762L19.407,4.762C19.802,4.762 20.137,4.472 20.193,4.081L20.76,0.113C20.828,-0.365 20.457,-0.793 19.975,-0.793L0.794,-0.793C0.355,-0.793 0,-0.438 0,0L0,3.969Z" style="fill:white;fill-rule:nonzero;"/>
                </g>
                <g transform="matrix(4.16667,0,0,4.16667,2208.3,1021.6)">
                    <path d="M0,-9.2C0,-9.638 0.355,-9.993 0.794,-9.993L4.948,-9.993C5.387,-9.993 5.742,-9.638 5.742,-9.2L5.742,0C5.742,0.438 5.387,0.794 4.948,0.794L0.794,0.794C0.355,0.794 0,0.438 0,0L0,-9.2ZM-7.508,5.556L12.488,5.556C12.927,5.556 13.282,5.2 13.282,4.762L13.282,-13.962C13.282,-14.401 12.927,-14.756 12.488,-14.756L-6.776,-14.756C-7.203,-14.756 -7.553,-14.419 -7.569,-13.993L-8.302,4.731C-8.319,5.181 -7.959,5.556 -7.508,5.556" style="fill:white;fill-rule:nonzero;"/>
                </g>
                <g transform="matrix(4.16667,0,0,4.16667,2316.07,981.18)">
                    <path d="M0,-24.535C0,-24.973 0.355,-25.328 0.793,-25.328L4.534,-25.328C4.977,-25.328 5.334,-24.966 5.327,-24.523L5.294,-20.949C5.288,-20.515 4.935,-20.167 4.501,-20.167L0.793,-20.167C0.355,-20.167 0,-20.523 0,-20.961L0,-24.535ZM0,-33.665C0,-34.103 0.355,-34.458 0.793,-34.458L4.676,-34.458C5.118,-34.458 5.476,-34.096 5.469,-33.653L5.436,-30.079C5.429,-29.645 5.076,-29.297 4.643,-29.297L0.793,-29.297C0.355,-29.297 0,-29.653 0,-30.091L0,-33.665ZM13.08,-24.535C13.08,-24.973 13.436,-25.328 13.874,-25.328L17.827,-25.328C18.266,-25.328 18.621,-24.973 18.621,-24.535L18.621,-20.961C18.621,-20.523 18.266,-20.167 17.827,-20.167L13.874,-20.167C13.436,-20.167 13.08,-20.523 13.08,-20.961L13.08,-24.535ZM13.08,-33.665C13.08,-34.103 13.436,-34.458 13.874,-34.458L17.827,-34.458C18.266,-34.458 18.621,-34.103 18.621,-33.665L18.621,-30.091C18.621,-29.653 18.266,-29.297 17.827,-29.297L13.874,-29.297C13.436,-29.297 13.08,-29.653 13.08,-30.091L13.08,-33.665ZM-6.787,-39.17L-7.533,-14.705C-7.547,-14.258 -7.187,-13.888 -6.74,-13.888L4.357,-13.888C4.801,-13.888 5.158,-13.525 5.151,-13.082L5.125,-10.719C5.118,-10.285 4.765,-9.937 4.331,-9.937L-8.548,-9.937C-8.986,-9.937 -9.342,-9.581 -9.342,-9.143L-9.342,-5.752C-9.342,-5.313 -8.986,-4.958 -8.548,-4.958L4.224,-4.958C4.666,-4.958 5.023,-4.596 5.017,-4.152L4.741,14.6C4.734,15.043 5.092,15.405 5.535,15.405L12.27,15.405C12.708,15.405 13.063,15.05 13.063,14.612L13.063,-4.164C13.063,-4.603 13.419,-4.958 13.856,-4.958L25.652,-4.958C26.047,-4.958 26.382,-5.248 26.437,-5.639L27.005,-9.031C27.073,-9.509 26.702,-9.937 26.219,-9.937L13.856,-9.937C13.419,-9.937 13.063,-10.292 13.063,-10.731L13.063,-13.094C13.063,-13.533 13.419,-13.888 13.856,-13.888L24.557,-13.888C24.995,-13.888 25.351,-14.243 25.351,-14.681L25.351,-39.146C25.351,-39.585 24.995,-39.94 24.573,-39.94L-5.977,-39.94C-6.423,-39.94 -6.774,-39.599 -6.787,-39.17" style="fill:white;fill-rule:nonzero;"/>
                </g>
                <g transform="matrix(4.16667,0,0,4.16667,1997.88,895.604)">
                    <path d="M0,-19.402L-4.978,-19.402C-5.42,-19.402 -5.777,-19.04 -5.771,-18.597L-5.65,-10.083L-5.634,-8.918C-5.627,-8.523 -5.628,-8.183 -5.604,-7.636C-5.549,-6.633 -5.433,-5.524 -4.916,-4.236C-4.629,-3.589 -4.268,-2.908 -3.684,-2.282C-3.126,-1.664 -2.401,-1.123 -1.682,-0.793C-0.203,-0.09 1.069,-0.027 2.156,0L6.241,-0.068C7.847,-0.065 9.451,-0.083 11.057,-0.053L13.464,-0.011C14.382,-0.002 15.306,-0.031 16.205,-0.08C17.109,-0.137 18.006,-0.237 18.929,-0.37C19.606,-0.467 20.28,-0.586 21.024,-0.772C21.489,-0.888 21.746,-1.393 21.568,-1.838L19.538,-6.934C19.383,-7.324 18.936,-7.522 18.538,-7.387C18.239,-7.285 17.904,-7.19 17.568,-7.102C16.916,-6.939 16.222,-6.822 15.53,-6.723C14.832,-6.624 14.151,-6.566 13.464,-6.558L11.057,-6.517C9.451,-6.486 7.847,-6.504 6.241,-6.502L1.643,-6.576C0.978,-6.587 0.758,-6.846 0.677,-7.355C0.661,-7.513 0.648,-7.683 0.648,-7.871L0.667,-9.822C0.671,-10.139 0.928,-10.393 1.244,-10.393L16.843,-10.393C17.237,-10.393 17.572,-10.684 17.628,-11.075L18.195,-13.889C18.264,-14.367 17.893,-14.795 17.409,-14.795L1.558,-14.795C1.114,-14.795 0.758,-15.157 0.764,-15.6L0.793,-18.597C0.8,-19.04 0.442,-19.402 0,-19.402" style="fill:white;fill-rule:nonzero;"/>
                </g>
                <g transform="matrix(4.16667,0,0,4.16667,1998.02,985.166)">
                    <path d="M0,-20.093L-4.979,-20.093C-5.421,-20.093 -5.778,-19.731 -5.772,-19.288L-5.65,-10.382L-5.634,-9.168C-5.627,-8.754 -5.629,-8.403 -5.604,-7.84C-5.549,-6.805 -5.431,-5.665 -4.906,-4.349C-4.618,-3.689 -4.249,-2.993 -3.659,-2.353C-3.096,-1.72 -2.358,-1.166 -1.623,-0.824C-0.112,-0.096 1.197,-0.03 2.319,0L6.611,-0.067C8.284,-0.064 9.956,-0.082 11.629,-0.052L14.138,-0.01C15.088,-0.001 16.047,-0.031 16.979,-0.084C17.918,-0.144 18.849,-0.249 19.805,-0.388C20.516,-0.492 21.222,-0.617 22,-0.815C22.464,-0.933 22.721,-1.437 22.543,-1.882L20.51,-6.979C20.354,-7.368 19.908,-7.569 19.512,-7.433C19.184,-7.321 18.813,-7.216 18.443,-7.12C17.758,-6.95 17.03,-6.829 16.305,-6.727C15.573,-6.625 14.86,-6.565 14.138,-6.557L11.629,-6.516C9.956,-6.486 8.284,-6.504 6.611,-6.5L1.859,-6.575C1.137,-6.587 0.812,-6.795 0.681,-7.499C0.663,-7.674 0.649,-7.862 0.648,-8.068L0.655,-9.406L0.667,-10.238C0.671,-10.553 0.928,-10.807 1.244,-10.807L17.079,-10.807C17.475,-10.807 17.81,-11.097 17.865,-11.488L18.432,-14.302C18.501,-14.781 18.129,-15.208 17.646,-15.208L1.555,-15.208C1.09,-15.208 0.755,-15.57 0.762,-16.013L0.794,-19.288C0.8,-19.731 0.442,-20.093 0,-20.093" style="fill:white;fill-rule:nonzero;"/>
                </g>
                <g transform="matrix(4.16667,0,0,4.16667,1926.5,952.273)">
                    <path d="M0,-7.458C-3.635,-6.319 -7.208,-5.577 -10.562,-5.045C-11.072,-4.964 -11.514,-5.389 -11.47,-5.904C-11.385,-6.89 -11.319,-9.065 -11.272,-10.121C-11.253,-10.545 -10.906,-10.884 -10.481,-10.884L-0.233,-10.884C0.204,-10.884 0.56,-10.529 0.56,-10.09L0.56,-8.222C0.56,-7.874 0.332,-7.562 0,-7.458M-17.146,-15.863C-17.584,-15.863 -17.939,-15.508 -17.939,-15.069L-17.939,-12.465C-18.031,-5.034 -19.029,0.548 -20.915,4.147C-21.105,4.512 -21.007,4.958 -20.666,5.188L-16.292,8.145C-15.907,8.405 -15.373,8.288 -15.153,7.878C-14.055,5.838 -13.19,2.862 -12.551,0.088C-12.478,-0.232 -12.22,-0.477 -11.894,-0.521C-8.328,-1.01 -4.462,-1.697 -0.447,-2.795C0.059,-2.934 0.56,-2.56 0.56,-2.035L0.56,0.715C0.56,1.153 0.204,1.509 -0.233,1.509L-4.095,1.509C-4.533,1.509 -4.889,1.864 -4.889,2.302L-4.889,7.101C-4.889,7.539 -4.533,7.895 -4.095,7.895L1.692,7.895C7.476,7.895 7.307,3.83 7.307,1.834L7.307,-15.069C7.307,-15.508 6.951,-15.863 6.513,-15.863L-17.146,-15.863Z" style="fill:white;fill-rule:nonzero;"/>
                </g>
                <g transform="matrix(4.16667,0,0,4.16667,1951.45,1045.91)">
                    <path d="M0,-10.436L-5.963,-10.436C-6.369,-10.436 -6.639,-10.117 -6.747,-9.726C-7.634,-6.546 -8.771,-3.749 -9.381,-0.961C-9.489,-0.466 -9.114,0 -8.606,0L-1.365,0C-0.988,0 -0.662,-0.262 -0.586,-0.631C-0.002,-3.472 0.503,-6.48 0.795,-9.567C0.839,-10.033 0.468,-10.436 0,-10.436" style="fill:white;fill-rule:nonzero;"/>
                </g>
                <g transform="matrix(4.16667,0,0,4.16667,1978.89,1003.89)">
                    <path d="M0,9.174C0.075,9.543 0.402,9.805 0.779,9.805L8.021,9.805C8.527,9.805 8.902,9.34 8.794,8.844C8.185,6.056 7.048,3.259 6.161,0.079C6.053,-0.312 5.782,-0.631 5.377,-0.631L-0.587,-0.631C-1.054,-0.631 -1.425,-0.227 -1.381,0.238C-1.089,3.325 -0.584,6.334 0,9.174" style="fill:white;fill-rule:nonzero;"/>
                </g>
                <g transform="matrix(4.16667,0,0,4.16667,1881.82,1004.37)">
                    <path d="M0,9.506C1.269,6.7 2.482,3.698 3.465,0.565C3.625,0.055 3.236,-0.465 2.702,-0.465L-4.19,-0.465C-4.524,-0.465 -4.82,-0.254 -4.933,0.061C-6.029,3.14 -7.937,6.105 -9.258,8.832C-9.514,9.36 -9.132,9.971 -8.545,9.971L-0.725,9.971C-0.412,9.971 -0.129,9.791 0,9.506" style="fill:white;fill-rule:nonzero;"/>
                </g>
                <g transform="matrix(4.16667,0,0,4.16667,2271.96,810.494)">
                    <path d="M0,12.235L0.607,7.076C0.663,6.604 0.294,6.189 -0.181,6.189L-8.129,6.19C-8.439,6.19 -8.722,6.012 -8.852,5.73C-9.72,3.845 -10.563,1.865 -11.292,-0.175C-11.404,-0.489 -11.699,-0.701 -12.034,-0.701L-17.873,-0.701C-18.407,-0.701 -18.796,-0.18 -18.635,0.329C-18.058,2.157 -17.393,3.932 -16.687,5.645C-16.578,5.905 -16.769,6.189 -17.051,6.189L-24.8,6.189C-25.238,6.189 -25.594,6.545 -25.594,6.983L-25.594,12.142C-25.594,12.58 -25.238,12.936 -24.8,12.936L-0.788,12.936C-0.386,12.936 -0.047,12.634 0,12.235" style="fill:white;fill-rule:nonzero;"/>
                </g>
                <g transform="matrix(4.16667,0,0,4.16667,2297.5,1045.92)">
                    <path d="M0,-16.613C-0.438,-16.613 -0.794,-16.258 -0.794,-15.82L-0.794,-10.436L-0.798,-10.436C-1.673,-7.143 -2.765,-3.97 -3.848,-1.07C-4.041,-0.55 -3.659,0 -3.104,0L1.774,0C2.113,0 2.415,-0.211 2.525,-0.531C3.562,-3.515 4.549,-6.721 5.323,-10.07C5.38,-10.312 5.407,-10.562 5.407,-10.811L5.407,-15.82C5.407,-16.258 5.052,-16.613 4.613,-16.613L0,-16.613Z" style="fill:white;fill-rule:nonzero;"/>
                </g>
                <g transform="matrix(4.16667,0,0,4.16667,2431.42,983.247)">
                    <path d="M0,13.467C-0.747,12.955 -1.449,13.488 -2.008,11.968C-2.841,9.632 -3.649,7.156 -4.328,4.604L-4.332,4.604L-4.332,-0.779C-4.332,-1.218 -4.687,-1.573 -5.126,-1.573L-9.739,-1.573C-10.178,-1.573 -10.533,-1.218 -10.533,-0.779L-10.533,4.23C-10.533,4.478 -10.505,4.728 -10.449,4.97C-9.675,8.32 -8.687,11.525 -7.651,14.509C-7.54,14.83 -7.238,15.04 -6.899,15.04L-0.719,15.04C0.596,15.04 0.67,13.926 0,13.467" style="fill:white;fill-rule:nonzero;"/>
                </g>
                <g transform="matrix(4.16667,0,0,4.16667,2081.69,1002.43)">
                    <path d="M-7.821,10.436L1.088,10.436C2.402,10.436 2.477,9.322 1.807,8.863C1.063,8.353 0.485,8.824 -0.196,7.38C-1.208,5.2 -2.77,2.899 -3.614,0.526C-3.727,0.211 -4.022,0 -4.356,0L-11.248,0C-11.782,0 -12.171,0.52 -12.011,1.03C-11.029,4.164 -9.815,7.165 -8.547,9.971C-8.418,10.256 -8.134,10.436 -7.821,10.436Z" style="fill:white;fill-rule:nonzero;"/>
                </g>
                <g transform="matrix(4.16667,0,0,4.16667,1854.87,807.575)">
                    <path d="M0,15.536L23.742,15.536C24.18,15.536 24.525,15.165 24.495,14.728L23.852,5.411C23.824,5.015 23.495,4.708 23.099,4.708L18.768,4.708C18.354,4.708 18.02,5.043 18.02,5.456L18.02,9.496C18.02,9.911 17.68,10.251 17.265,10.251L9.509,10.251C8.806,10.251 8.482,9.365 9.027,8.923C11.069,7.267 14.521,4.826 18.043,0.97C18.381,0.599 18.121,0 17.619,0L11.094,0C10.795,0 10.51,0.118 10.295,0.325C6.772,3.728 3.044,6.428 -0.408,8.684C-0.622,8.824 -0.749,9.059 -0.749,9.315L-0.749,14.788C-0.749,15.2 -0.412,15.536 0,15.536" style="fill:white;fill-rule:nonzero;"/>
                </g>
                <g transform="matrix(4.16667,0,0,4.16667,1980.16,1311.29)">
                    <path d="M0,-47.441L-9.313,-47.441C-9.589,-47.441 -9.813,-47.217 -9.813,-46.941L-9.813,-16.643C-9.813,-16.171 -10.407,-15.962 -10.703,-16.33L-35.694,-47.441L-45.174,-47.441C-45.447,-47.441 -45.671,-47.22 -45.674,-46.946L-46.178,-0.505C-46.182,-0.227 -45.956,0 -45.678,0L-34.814,0C-33.776,0 -33.718,-0.879 -34.246,-1.241C-34.829,-1.64 -35.814,-1.569 -35.865,-2.799L-35.865,-30.966C-35.865,-31.438 -35.271,-31.647 -34.976,-31.279L-9.846,0L-0.505,0C-0.23,0 -0.008,-0.22 -0.005,-0.494L0.5,-46.935C0.503,-47.213 0.278,-47.441 0,-47.441" style="fill:white;fill-rule:nonzero;"/>
                </g>
                <g transform="matrix(4.16667,0,0,4.16667,1653.92,1159.33)">
                    <path d="M0,25.502C-7.619,25.502 -13.817,19.498 -13.817,12.751C-13.817,6.004 -7.619,0 0,0C7.619,0 13.818,6.004 13.818,12.751C13.818,19.498 7.619,25.502 0,25.502M0,-9.803C-13.309,-9.803 -24.136,0.315 -24.136,12.751C-24.136,25.188 -13.309,35.305 0,35.305C13.31,35.305 24.137,25.188 24.137,12.751C24.137,0.315 13.31,-9.803 0,-9.803" style="fill:white;fill-rule:nonzero;"/>
                </g>
                <g transform="matrix(4.16667,0,0,4.16667,2332.59,1159.33)">
                    <path d="M0,25.502C-7.619,25.502 -13.817,19.498 -13.817,12.751C-13.817,6.004 -7.619,0 0,0C7.618,0 13.816,6.004 13.816,12.751C13.816,19.498 7.618,25.502 0,25.502M0,-9.803C-13.309,-9.803 -24.136,0.315 -24.136,12.751C-24.136,25.188 -13.309,35.305 0,35.305C13.308,35.305 24.135,25.188 24.135,12.751C24.135,0.315 13.308,-9.803 0,-9.803" style="fill:white;fill-rule:nonzero;"/>
                </g>
                <g transform="matrix(4.16667,0,0,4.16667,2229.78,1118.8)">
                    <path d="M0,44.958C-0.598,44.548 -1.107,44.508 -2.158,43.395L-23.994,20.263C-24.191,20.054 -24.172,19.722 -23.952,19.537L-0.239,-0.358C0.119,-0.658 -0.094,-1.242 -0.561,-1.242L-14.83,-1.242C-14.952,-1.242 -15.07,-1.197 -15.162,-1.116L-37.56,18.747C-37.882,19.033 -38.392,18.804 -38.392,18.373L-38.392,-0.742C-38.392,-1.018 -38.615,-1.242 -38.892,-1.242L-47.7,-1.242C-47.974,-1.242 -48.197,-1.021 -48.2,-0.747L-48.704,45.694C-48.708,45.972 -48.482,46.2 -48.204,46.2L-38.892,46.2C-38.615,46.2 -38.392,45.976 -38.392,45.7L-38.392,31.885C-38.392,31.737 -38.326,31.597 -38.213,31.502L-31.552,25.914C-31.344,25.738 -31.033,25.762 -30.854,25.968L-13.354,46.028C-13.259,46.137 -13.122,46.2 -12.978,46.2L-0.567,46.2C0.47,46.2 0.528,45.32 0,44.958" style="fill:white;fill-rule:nonzero;"/>
                </g>
                <g transform="matrix(4.16667,0,0,4.16667,1295.51,1285.31)">
                    <path d="M0,-35.025C-1.416,-36.331 -2.92,-37.382 -4.472,-38.255C-7.576,-39.998 -10.862,-41.096 -14.202,-41.703C-17.539,-42.331 -20.968,-42.371 -24.146,-42.118C-27.396,-41.838 -30.735,-41.291 -34.142,-39.82C-35.834,-39.076 -37.556,-38.067 -39.113,-36.619C-40.658,-35.17 -41.987,-33.214 -42.654,-31.081C-43.345,-28.941 -43.436,-26.823 -43.205,-24.849C-42.986,-22.842 -42.258,-20.558 -40.809,-18.654C-39.382,-16.726 -37.396,-15.423 -35.552,-14.655C-33.684,-13.864 -31.892,-13.501 -30.181,-13.267C-26.765,-12.839 -23.619,-12.97 -20.572,-13.171C-17.806,-13.344 -15.086,-13.397 -12.709,-13.072C-11.534,-12.908 -10.446,-12.646 -9.629,-12.283C-8.793,-11.92 -8.277,-11.515 -7.969,-11.074C-7.658,-10.631 -7.429,-10.044 -7.346,-9.154C-7.256,-8.233 -7.345,-7.367 -7.577,-6.729C-7.802,-6.072 -8.18,-5.543 -8.763,-4.998C-9.36,-4.465 -10.188,-3.969 -11.178,-3.566C-13.162,-2.749 -15.67,-2.327 -18.226,-2.182C-20.865,-2.039 -23.324,-2.143 -25.722,-2.654C-28.114,-3.144 -30.416,-4.005 -32.377,-5.175C-33.357,-5.754 -34.234,-6.43 -34.943,-7.128C-35.477,-7.645 -35.896,-8.196 -36.151,-8.663C-36.28,-8.898 -36.559,-9.004 -36.803,-8.895L-45.005,-5.22C-45.267,-5.103 -45.381,-4.788 -45.248,-4.534C-44.257,-2.639 -43.006,-1.203 -41.707,0.01C-40.29,1.311 -38.785,2.355 -37.237,3.229C-34.138,4.971 -30.856,6.068 -27.521,6.676C-24.188,7.304 -20.763,7.346 -17.586,7.094C-14.338,6.816 -11.002,6.27 -7.6,4.802C-5.908,4.061 -4.191,3.051 -2.636,1.607C-1.093,0.163 0.234,-1.789 0.901,-3.918C1.592,-6.054 1.686,-8.168 1.456,-10.14C1.238,-12.145 0.515,-14.425 -0.931,-16.325C-2.354,-18.248 -4.332,-19.555 -6.173,-20.325C-8.038,-21.12 -9.829,-21.488 -11.539,-21.725C-14.955,-22.16 -18.102,-22.034 -21.151,-21.837C-23.92,-21.666 -26.642,-21.614 -29.02,-21.939C-30.194,-22.104 -31.281,-22.366 -32.098,-22.729C-32.933,-23.09 -33.441,-23.496 -33.749,-23.93C-34.057,-24.368 -34.283,-24.952 -34.364,-25.839C-34.453,-26.758 -34.362,-27.621 -34.13,-28.254C-33.905,-28.907 -33.528,-29.432 -32.948,-29.973C-32.353,-30.501 -31.528,-30.999 -30.54,-31.399C-28.561,-32.212 -26.056,-32.633 -23.502,-32.776C-20.864,-32.918 -18.408,-32.813 -16.015,-32.301C-13.626,-31.81 -11.329,-30.949 -9.373,-29.78C-8.396,-29.2 -7.519,-28.532 -6.809,-27.84C-6.272,-27.321 -5.851,-26.771 -5.586,-26.309C-5.455,-26.082 -5.181,-25.983 -4.941,-26.09L3.28,-29.773C3.539,-29.889 3.655,-30.202 3.526,-30.455C2.554,-32.363 1.3,-33.807 0,-35.025" style="fill:white;fill-rule:nonzero;"/>
                </g>
                <g transform="matrix(4.16667,0,0,4.16667,1532.91,1118.8)">
                    <path d="M0,44.958C-0.598,44.548 -1.623,44.639 -1.623,43.304C-1.623,43.274 -1.624,43.25 -1.625,43.226L-1.147,-0.736C-1.145,-1.014 -1.369,-1.242 -1.647,-1.242L-10.961,-1.242C-11.237,-1.242 -11.461,-1.018 -11.461,-0.742L-11.461,17.598C-11.461,17.874 -11.685,18.098 -11.961,18.098L-37.014,18.098C-37.29,18.098 -37.514,17.874 -37.514,17.598L-37.514,-0.742C-37.514,-1.018 -37.738,-1.242 -38.014,-1.242L-47.332,-1.242C-47.608,-1.242 -47.832,-1.018 -47.832,-0.742L-47.832,45.7C-47.832,45.976 -47.608,46.2 -47.332,46.2L-36.456,46.2C-35.419,46.2 -35.36,45.32 -35.889,44.958C-36.486,44.548 -37.513,44.639 -37.513,43.304C-37.513,43.28 -37.514,43.261 -37.514,43.241L-37.514,27.361C-37.514,27.084 -37.29,26.861 -37.014,26.861L-11.961,26.861C-11.685,26.861 -11.461,27.084 -11.461,27.361L-11.461,45.7C-11.461,45.976 -11.237,46.2 -10.961,46.2L-0.567,46.2C0.47,46.2 0.528,45.32 0,44.958" style="fill:white;fill-rule:nonzero;"/>
                </g>
                <g transform="matrix(4.16667,0,0,4.16667,864.152,903.562)">
                    <path d="M0,72.234C7.349,70.325 11.772,64.488 8.946,59.724C4.722,52.604 -8.609,57.603 -15.323,44.077C-22.891,28.832 -25.572,28.314 -25.198,26.494C-24.845,24.781 -20.8,25.882 -16.265,27.126C-12.367,28.195 -8.555,28.908 -5.398,29.416C-2.924,29.829 -0.706,30.06 1.356,29.292C3.775,28.534 5.896,26.958 8.476,24.877C11.484,22.449 12.662,20.687 9.924,16.295C7.393,12.235 2.902,9.162 4.286,4.562C5.572,0.282 4.383,-1.715 -3.688,-10.54C-11.76,-19.366 -14.538,-17.117 -14.394,-20.791C-14.249,-24.465 -14.539,-31.016 -20.58,-32.683C-26.521,-34.322 -27.603,-25.784 -29.024,-23.937C-30.181,-22.436 -36.638,-25.223 -44.659,-23.447C-50.903,-22.064 -60.054,-16.722 -69.571,-9.802C-79.321,-2.714 -90.275,6.72 -97.964,15.289C-105.7,23.911 -106.21,28.763 -106.21,43.235C-106.21,73.646 -83.716,99.188 -53.303,106.359C-52.472,106.556 -51.457,106.263 -51.152,105.464C-37.188,68.915 -45.443,56.623 -35.802,63.988C-19.579,76.382 -3.563,73.16 0,72.234" style="fill:rgb(90,145,225);fill-rule:nonzero;"/>
                </g>
                <g transform="matrix(4.16667,0,0,4.16667,678.446,1013.32)">
                    <path d="M0,81.743C-1.527,81.332 -1.911,80.669 -1.422,79.375C3.25,67.007 5.606,56.019 6.614,46.114C7.129,41.06 8.011,42.593 11.94,45.166C21.203,51.233 39.121,54.714 51.147,47.597C56.017,44.716 59.068,39.228 57.774,33.717C55.616,25.312 43.108,23.995 39.6,21.815C33.59,18.08 33.73,13.401 27.319,5.642C26.637,4.302 29.458,5.239 30.606,5.492C33.068,6.033 63.577,14.149 66.644,14.981C67.114,15.109 67.777,15.376 68.039,14.717C68.23,14.236 67.731,13.884 67.391,13.583C65.552,11.964 63.715,10.342 61.849,8.753C60.784,7.848 59.55,7.644 58.69,8.882C57.736,10.256 54.373,8.933 53.218,8.043C52.384,7.401 52.532,6.639 53.051,5.945C54.755,3.665 55.812,2.278 57.594,0.059C58.384,-0.925 59.357,-0.982 60.361,-0.097C65.188,4.156 70.17,8.233 74.611,12.912C75.717,14.077 75.971,15.165 75.338,16.671C69.219,31.218 51.458,74.693 48.705,80.076C47.723,81.997 46.114,82.199 43.869,82.163C37.028,82.286 3.652,82.725 0,81.743" style="fill:rgb(243,198,64);fill-rule:nonzero;"/>
                </g>
            </g>
        </g>
    </g>
</svg>
