<?xml version="1.0" encoding="UTF-8" standalone="no"?>
<!DOCTYPE svg PUBLIC "-//W3C//DTD SVG 1.1//EN" "http://www.w3.org/Graphics/SVG/1.1/DTD/svg11.dtd">
<svg width="100%" height="100%" viewBox="0 0 64 103" version="1.1" xmlns="http://www.w3.org/2000/svg" xmlns:xlink="http://www.w3.org/1999/xlink" xml:space="preserve" xmlns:serif="http://www.serif.com/" style="fill-rule:evenodd;clip-rule:evenodd;stroke-linejoin:round;stroke-miterlimit:2;">
    <g transform="matrix(1,0,0,1,-1415.5,-4780)">
        <g transform="matrix(0.0621672,0,0,0.0621672,1348.51,4726.98)">
            <g transform="matrix(4.16667,0,0,4.16667,1668.32,1969.34)">
                <path d="M0,8.626L32.249,8.626C32.934,8.626 33.514,8.123 33.611,7.445L34.593,1.57C34.712,0.741 34.068,0 33.231,0L0,0C-0.759,0 -1.375,0.616 -1.375,1.376L-1.375,7.251C-1.375,8.01 -0.759,8.626 0,8.626" style="fill:rgb(90,145,225);fill-rule:nonzero;"/>
            </g>
            <g transform="matrix(4.16667,0,0,4.16667,1662.59,2038.03)">
                <path d="M0,6.876C0,7.635 0.616,8.251 1.375,8.251L33.624,8.251C34.309,8.251 34.889,7.748 34.986,7.07L35.968,0.195C36.087,-0.634 35.443,-1.375 34.606,-1.375L1.375,-1.375C0.616,-1.375 0,-0.759 0,-0L0,6.876Z" style="fill:rgb(90,145,225);fill-rule:nonzero;"/>
            </g>
            <g transform="matrix(4.16667,0,0,4.16667,1717.52,2210.56)">
                <path d="M0,-15.939C0,-16.698 0.615,-17.314 1.375,-17.314L8.571,-17.314C9.331,-17.314 9.947,-16.698 9.947,-15.939L9.947,0C9.947,0.759 9.331,1.375 8.571,1.375L1.375,1.375C0.615,1.375 0,0.759 0,0L0,-15.939ZM-13.01,9.626L21.636,9.626C22.395,9.626 23.011,9.01 23.011,8.251L23.011,-24.189C23.011,-24.949 22.395,-25.565 21.636,-25.565L-11.742,-25.565C-12.48,-25.565 -13.087,-24.981 -13.116,-24.243L-14.384,8.197C-14.414,8.977 -13.79,9.626 -13.01,9.626" style="fill:rgb(90,145,225);fill-rule:nonzero;"/>
            </g>
            <g transform="matrix(4.16667,0,0,4.16667,1904.22,2140.54)">
                <path d="M0,-42.509C0,-43.268 0.616,-43.884 1.375,-43.884L7.856,-43.884C8.624,-43.884 9.243,-43.256 9.23,-42.488L9.173,-36.297C9.162,-35.545 8.55,-34.942 7.798,-34.942L1.375,-34.942C0.616,-34.942 0,-35.558 0,-36.317L0,-42.509ZM0,-58.327C0,-59.086 0.616,-59.702 1.375,-59.702L8.101,-59.702C8.869,-59.702 9.487,-59.073 9.476,-58.306L9.418,-52.114C9.407,-51.363 8.795,-50.759 8.043,-50.759L1.375,-50.759C0.616,-50.759 0,-51.375 0,-52.135L0,-58.327ZM22.663,-42.509C22.663,-43.268 23.278,-43.884 24.038,-43.884L30.887,-43.884C31.646,-43.884 32.262,-43.268 32.262,-42.509L32.262,-36.317C32.262,-35.558 31.646,-34.942 30.887,-34.942L24.038,-34.942C23.278,-34.942 22.663,-35.558 22.663,-36.317L22.663,-42.509ZM22.663,-58.327C22.663,-59.086 23.278,-59.702 24.038,-59.702L30.887,-59.702C31.646,-59.702 32.262,-59.086 32.262,-58.327L32.262,-52.135C32.262,-51.375 31.646,-50.759 30.887,-50.759L24.038,-50.759C23.278,-50.759 22.663,-51.375 22.663,-52.135L22.663,-58.327ZM-11.758,-67.865L-13.051,-25.478C-13.074,-24.703 -12.452,-24.062 -11.677,-24.062L7.551,-24.062C8.318,-24.062 8.938,-23.434 8.926,-22.666L8.88,-18.572C8.868,-17.82 8.256,-17.217 7.505,-17.217L-14.81,-17.217C-15.569,-17.217 -16.185,-16.602 -16.185,-15.842L-16.185,-9.967C-16.185,-9.207 -15.569,-8.592 -14.81,-8.592L7.317,-8.592C8.085,-8.592 8.704,-7.963 8.692,-7.196L8.216,25.294C8.204,26.061 8.823,26.69 9.591,26.69L21.258,26.69C22.018,26.69 22.634,26.074 22.634,25.315L22.634,-7.216C22.634,-7.976 23.249,-8.592 24.009,-8.592L44.444,-8.592C45.128,-8.592 45.709,-9.094 45.806,-9.772L46.787,-15.648C46.906,-16.476 46.263,-17.217 45.426,-17.217L24.009,-17.217C23.249,-17.217 22.634,-17.833 22.634,-18.592L22.634,-22.687C22.634,-23.447 23.249,-24.062 24.009,-24.062L42.546,-24.062C43.306,-24.062 43.921,-24.678 43.921,-25.437L43.921,-67.824C43.921,-68.584 43.306,-69.199 42.575,-69.199L-10.354,-69.199C-11.127,-69.199 -11.735,-68.608 -11.758,-67.865" style="fill:rgb(90,145,225);fill-rule:nonzero;"/>
            </g>
            <g transform="matrix(4.16667,0,0,4.16667,1352.93,1992.27)">
                <path d="M0,-33.615L-8.624,-33.615C-9.391,-33.615 -10.009,-32.987 -9.999,-32.22L-9.789,-17.469L-9.76,-15.451C-9.749,-14.767 -9.751,-14.177 -9.709,-13.23C-9.613,-11.492 -9.412,-9.57 -8.517,-7.34C-8.02,-6.218 -7.393,-5.039 -6.381,-3.953C-5.416,-2.884 -4.16,-1.946 -2.913,-1.374C-0.351,-0.157 1.854,-0.046 3.736,0L10.814,-0.118C13.595,-0.113 16.375,-0.144 19.156,-0.092L23.327,-0.02C24.917,-0.003 26.518,-0.053 28.076,-0.139C29.643,-0.238 31.197,-0.41 32.796,-0.641C33.97,-0.81 35.137,-1.014 36.426,-1.338C37.231,-1.539 37.676,-2.413 37.369,-3.185L33.852,-12.013C33.582,-12.689 32.807,-13.032 32.119,-12.799C31.6,-12.623 31.02,-12.457 30.438,-12.304C29.308,-12.021 28.105,-11.82 26.907,-11.647C25.697,-11.477 24.518,-11.376 23.327,-11.362L19.156,-11.291C16.375,-11.238 13.595,-11.269 10.814,-11.264L2.846,-11.394C1.694,-11.413 1.314,-11.862 1.173,-12.743C1.146,-13.017 1.125,-13.311 1.124,-13.636L1.156,-17.018C1.162,-17.566 1.608,-18.007 2.156,-18.007L29.181,-18.007C29.865,-18.007 30.445,-18.51 30.542,-19.188L31.524,-24.063C31.643,-24.892 31,-25.633 30.163,-25.633L2.699,-25.633C1.932,-25.633 1.313,-26.261 1.324,-27.028L1.375,-32.22C1.386,-32.987 0.767,-33.615 0,-33.615" style="fill:rgb(90,145,225);fill-rule:nonzero;"/>
            </g>
            <g transform="matrix(4.16667,0,0,4.16667,1353.19,2147.44)">
                <path d="M0,-34.812L-8.625,-34.812C-9.393,-34.812 -10.011,-34.185 -10,-33.418L-9.79,-17.987L-9.762,-15.883C-9.749,-15.167 -9.753,-14.559 -9.71,-13.582C-9.614,-11.791 -9.408,-9.815 -8.501,-7.536C-8.001,-6.391 -7.362,-5.186 -6.34,-4.077C-5.363,-2.979 -4.086,-2.02 -2.813,-1.429C-0.194,-0.167 2.074,-0.051 4.019,0L11.454,-0.116C14.352,-0.111 17.25,-0.143 20.147,-0.09L24.494,-0.019C26.141,-0.001 27.801,-0.055 29.418,-0.146C31.044,-0.25 32.656,-0.431 34.313,-0.672C35.543,-0.853 36.768,-1.07 38.116,-1.412C38.92,-1.617 39.364,-2.489 39.056,-3.26L35.533,-12.091C35.265,-12.765 34.491,-13.114 33.805,-12.879C33.236,-12.684 32.595,-12.502 31.953,-12.335C30.765,-12.041 29.505,-11.832 28.248,-11.654C26.981,-11.478 25.745,-11.374 24.494,-11.36L20.147,-11.289C17.25,-11.236 14.352,-11.268 11.454,-11.262L3.222,-11.392C1.969,-11.412 1.408,-11.772 1.179,-12.993C1.148,-13.295 1.124,-13.621 1.123,-13.979L1.135,-16.296L1.155,-17.737C1.162,-18.284 1.608,-18.723 2.155,-18.723L29.591,-18.723C30.275,-18.723 30.855,-19.226 30.952,-19.904L31.934,-24.779C32.053,-25.608 31.41,-26.349 30.573,-26.349L2.694,-26.349C1.887,-26.349 1.309,-26.976 1.319,-27.743L1.375,-33.418C1.385,-34.185 0.767,-34.812 0,-34.812" style="fill:rgb(90,145,225);fill-rule:nonzero;"/>
            </g>
            <g transform="matrix(4.16667,0,0,4.16667,1229.27,2090.45)">
                <path d="M0,-12.922C-6.297,-10.949 -12.487,-9.662 -18.297,-8.742C-19.182,-8.602 -19.948,-9.337 -19.871,-10.229C-19.724,-11.939 -19.61,-15.706 -19.529,-17.535C-19.496,-18.271 -18.896,-18.858 -18.159,-18.858L-0.404,-18.858C0.355,-18.858 0.971,-18.242 0.971,-17.483L0.971,-14.246C0.971,-13.643 0.576,-13.102 0,-12.922M-29.705,-27.484C-30.465,-27.484 -31.081,-26.868 -31.081,-26.109L-31.081,-21.596C-31.24,-8.723 -32.969,0.949 -36.235,7.185C-36.566,7.816 -36.395,8.589 -35.805,8.988L-28.227,14.111C-27.56,14.562 -26.635,14.358 -26.253,13.649C-24.349,10.114 -22.852,4.958 -21.745,0.153C-21.617,-0.402 -21.17,-0.827 -20.606,-0.904C-14.428,-1.751 -7.73,-2.941 -0.774,-4.843C0.103,-5.083 0.971,-4.435 0.971,-3.526L0.971,1.238C0.971,1.997 0.355,2.613 -0.404,2.613L-7.093,2.613C-7.853,2.613 -8.469,3.229 -8.469,3.988L-8.469,12.302C-8.469,13.061 -7.853,13.677 -7.093,13.677L2.932,13.677C12.953,13.677 12.66,6.634 12.66,3.176L12.66,-26.109C12.66,-26.868 12.044,-27.484 11.284,-27.484L-29.705,-27.484Z" style="fill:rgb(90,145,225);fill-rule:nonzero;"/>
            </g>
            <g transform="matrix(4.16667,0,0,4.16667,1272.51,2252.69)">
                <path d="M0,-18.081L-10.332,-18.081C-11.035,-18.081 -11.502,-17.528 -11.69,-16.851C-13.227,-11.342 -15.196,-6.496 -16.252,-1.665C-16.44,-0.807 -15.791,0 -14.912,0L-2.365,0C-1.712,0 -1.147,-0.454 -1.015,-1.094C-0.004,-6.015 0.871,-11.227 1.377,-16.576C1.453,-17.382 0.81,-18.081 0,-18.081" style="fill:rgb(90,145,225);fill-rule:nonzero;"/>
            </g>
            <g transform="matrix(4.16667,0,0,4.16667,1320.03,2179.89)">
                <path d="M0,15.893C0.131,16.533 0.697,16.986 1.35,16.986L13.896,16.987C14.775,16.987 15.425,16.18 15.237,15.321C14.181,10.491 12.211,5.645 10.675,0.136C10.486,-0.542 10.019,-1.094 9.316,-1.094L-1.016,-1.094C-1.825,-1.094 -2.468,-0.396 -2.392,0.411C-1.886,5.759 -1.011,10.972 0,15.893" style="fill:rgb(90,145,225);fill-rule:nonzero;"/>
            </g>
            <g transform="matrix(4.16667,0,0,4.16667,1151.86,2180.71)">
                <path d="M0,16.469C2.197,11.608 4.301,6.407 6.002,0.978C6.279,0.095 5.606,-0.806 4.681,-0.806L-7.26,-0.806C-7.839,-0.806 -8.352,-0.44 -8.546,0.105C-10.446,5.44 -13.75,10.577 -16.04,15.301C-16.483,16.216 -15.821,17.275 -14.804,17.275L-1.256,17.275C-0.715,17.275 -0.223,16.963 0,16.469" style="fill:rgb(90,145,225);fill-rule:nonzero;"/>
            </g>
            <g transform="matrix(4.16667,0,0,4.16667,1827.81,1844.81)">
                <path d="M0,21.197L1.052,12.259C1.148,11.441 0.509,10.723 -0.314,10.723L-14.084,10.723C-14.622,10.723 -15.111,10.415 -15.336,9.926C-16.841,6.661 -18.3,3.231 -19.563,-0.303C-19.759,-0.848 -20.271,-1.214 -20.85,-1.214L-30.966,-1.214C-31.892,-1.214 -32.564,-0.313 -32.286,0.571C-31.286,3.736 -30.135,6.812 -28.91,9.779C-28.724,10.231 -29.053,10.723 -29.542,10.723L-42.968,10.723C-43.728,10.723 -44.343,11.339 -44.343,12.098L-44.343,21.036C-44.343,21.796 -43.728,22.411 -42.968,22.411L-1.365,22.411C-0.668,22.411 -0.081,21.889 0,21.197" style="fill:rgb(90,145,225);fill-rule:nonzero;"/>
            </g>
            <g transform="matrix(4.16667,0,0,4.16667,1872.05,2252.69)">
                <path d="M0,-28.783C-0.76,-28.783 -1.375,-28.167 -1.375,-27.408L-1.375,-18.081L-1.382,-18.081C-2.898,-12.375 -4.79,-6.879 -6.666,-1.853C-7.002,-0.953 -6.339,0 -5.379,0L3.074,0C3.661,0 4.184,-0.365 4.376,-0.92C6.17,-6.09 7.881,-11.644 9.224,-17.447C9.32,-17.866 9.368,-18.3 9.368,-18.73L9.368,-27.408C9.368,-28.167 8.753,-28.783 7.993,-28.783L0,-28.783Z" style="fill:rgb(90,145,225);fill-rule:nonzero;"/>
            </g>
            <g transform="matrix(4.16667,0,0,4.16667,2104.08,2144.12)">
                <path d="M0,23.331C-1.295,22.443 -2.511,23.368 -3.479,20.735C-4.922,16.686 -6.323,12.397 -7.5,7.975L-7.506,7.975L-7.506,-1.351C-7.506,-2.11 -8.122,-2.726 -8.881,-2.726L-16.874,-2.726C-17.634,-2.726 -18.25,-2.11 -18.25,-1.351L-18.25,7.327C-18.25,7.757 -18.201,8.19 -18.104,8.61C-16.762,14.413 -15.051,19.966 -13.257,25.137C-13.064,25.692 -12.542,26.057 -11.955,26.057L-3.502,26.056L-1.246,26.056C1.031,26.056 1.16,24.126 0,23.331" style="fill:rgb(90,145,225);fill-rule:nonzero;"/>
            </g>
            <g transform="matrix(4.16667,0,0,4.16667,1498.14,2177.35)">
                <path d="M0,18.081L1.885,18.081C4.163,18.081 4.292,16.151 3.131,15.356C1.842,14.473 0.841,15.289 -0.34,12.788C-2.092,9.01 -4.798,5.023 -6.262,0.912C-6.456,0.367 -6.968,0 -7.547,0L-19.488,0C-20.414,0 -21.086,0.902 -20.81,1.785C-19.108,7.214 -17.004,12.415 -14.807,17.276C-14.584,17.769 -14.092,18.081 -13.551,18.081L0,18.081" style="fill:rgb(90,145,225);fill-rule:nonzero;"/>
            </g>
            <g transform="matrix(4.16667,0,0,4.16667,1105.17,1839.75)">
                <path d="M0,26.918L41.135,26.918C41.893,26.918 42.493,26.275 42.44,25.519L41.325,9.375C41.277,8.689 40.708,8.158 40.021,8.158L32.516,8.158C31.8,8.158 31.22,8.738 31.22,9.454L31.22,16.453C31.22,17.172 30.631,17.761 29.912,17.761L16.474,17.761C15.257,17.761 14.696,16.226 15.642,15.46C19.178,12.591 25.159,8.362 31.26,1.681C31.847,1.039 31.396,0 30.527,0L19.22,0C18.704,0 18.208,0.205 17.837,0.564C11.734,6.46 5.274,11.137 -0.707,15.046C-1.078,15.289 -1.296,15.697 -1.296,16.14L-1.296,25.621C-1.296,26.335 -0.713,26.918 0,26.918" style="fill:rgb(90,145,225);fill-rule:nonzero;"/>
            </g>
            <g transform="matrix(4.16667,0,0,4.16667,1754.11,2503.18)">
                <path d="M0,-36.512L-7.168,-36.512C-7.381,-36.512 -7.553,-36.34 -7.553,-36.127L-7.553,-12.81C-7.553,-12.446 -8.01,-12.285 -8.237,-12.569L-27.472,-36.512L-34.767,-36.512C-34.978,-36.512 -35.149,-36.342 -35.151,-36.132L-35.54,-0.389C-35.542,-0.175 -35.369,0 -35.155,0L-26.794,0C-25.995,0 -25.95,-0.678 -26.357,-0.956C-26.806,-1.263 -27.564,-1.208 -27.603,-2.155L-27.603,-23.832C-27.603,-24.196 -27.146,-24.357 -26.918,-24.074L-7.578,0L-0.389,0C-0.178,0 -0.006,-0.17 -0.004,-0.381L0.385,-36.123C0.387,-36.337 0.214,-36.512 0,-36.512" style="fill:rgb(90,145,225);fill-rule:nonzero;"/>
            </g>
            <g transform="matrix(4.16667,0,0,4.16667,1503.04,2386.22)">
                <path d="M0,19.628C-5.864,19.628 -10.634,15.007 -10.634,9.815C-10.634,4.622 -5.864,0.001 0,0.001C5.864,0.001 10.634,4.622 10.634,9.815C10.634,15.007 5.864,19.628 0,19.628M0,-7.544C-10.243,-7.544 -18.576,0.243 -18.576,9.815C-18.576,19.386 -10.243,27.172 0,27.172C10.243,27.172 18.576,19.386 18.576,9.815C18.576,0.243 10.243,-7.544 0,-7.544" style="fill:rgb(90,145,225);fill-rule:nonzero;"/>
            </g>
            <g transform="matrix(4.16667,0,0,4.16667,2025.36,2386.22)">
                <path d="M0,19.628C-5.864,19.628 -10.635,15.007 -10.635,9.815C-10.635,4.622 -5.864,0.001 0,0.001C5.862,0.001 10.633,4.622 10.633,9.815C10.633,15.007 5.862,19.628 0,19.628M0,-7.544C-10.243,-7.544 -18.576,0.243 -18.576,9.815C-18.576,19.386 -10.243,27.172 0,27.172C10.241,27.172 18.574,19.386 18.574,9.815C18.574,0.243 10.241,-7.544 0,-7.544" style="fill:rgb(90,145,225);fill-rule:nonzero;"/>
            </g>
            <g transform="matrix(4.16667,0,0,4.16667,1946.23,2355.04)">
                <path d="M0,34.6C-0.46,34.285 -0.853,34.253 -1.661,33.397L-18.467,15.594C-18.618,15.433 -18.604,15.178 -18.435,15.035L-0.185,-0.276C0.091,-0.507 -0.072,-0.956 -0.432,-0.956L-11.414,-0.956C-11.508,-0.956 -11.599,-0.922 -11.669,-0.859L-28.907,14.427C-29.155,14.647 -29.547,14.471 -29.547,14.139L-29.547,-0.571C-29.547,-0.784 -29.72,-0.956 -29.932,-0.956L-36.711,-0.956C-36.922,-0.956 -37.094,-0.786 -37.096,-0.576L-37.484,35.166C-37.486,35.381 -37.313,35.556 -37.1,35.556L-29.932,35.556C-29.72,35.556 -29.547,35.383 -29.547,35.17L-29.547,24.538C-29.547,24.425 -29.497,24.317 -29.41,24.244L-24.283,19.943C-24.123,19.808 -23.884,19.827 -23.746,19.985L-10.278,35.424C-10.205,35.507 -10.1,35.556 -9.988,35.556L-0.437,35.556C0.361,35.556 0.406,34.878 0,34.6" style="fill:rgb(90,145,225);fill-rule:nonzero;"/>
            </g>
            <g transform="matrix(4.16667,0,0,4.16667,1227.19,2483.18)">
                <path d="M0,-26.955C-1.09,-27.96 -2.248,-28.769 -3.441,-29.441C-5.831,-30.783 -8.36,-31.627 -10.93,-32.095C-13.498,-32.578 -16.137,-32.609 -18.583,-32.414C-21.085,-32.199 -23.654,-31.777 -26.276,-30.645C-27.578,-30.073 -28.904,-29.296 -30.102,-28.182C-31.292,-27.067 -32.314,-25.561 -32.828,-23.919C-33.359,-22.272 -33.429,-20.643 -33.251,-19.123C-33.083,-17.579 -32.522,-15.821 -31.407,-14.356C-30.309,-12.872 -28.78,-11.869 -27.362,-11.278C-25.923,-10.669 -24.544,-10.39 -23.228,-10.21C-20.598,-9.88 -18.178,-9.981 -15.833,-10.136C-13.704,-10.269 -11.61,-10.31 -9.781,-10.06C-8.876,-9.933 -8.04,-9.732 -7.41,-9.452C-6.767,-9.173 -6.37,-8.861 -6.133,-8.522C-5.894,-8.182 -5.717,-7.729 -5.653,-7.044C-5.584,-6.335 -5.653,-5.669 -5.832,-5.178C-6.004,-4.672 -6.295,-4.265 -6.744,-3.846C-7.204,-3.435 -7.841,-3.054 -8.603,-2.743C-10.13,-2.115 -12.06,-1.79 -14.027,-1.679C-16.058,-1.568 -17.951,-1.648 -19.796,-2.042C-21.637,-2.419 -23.408,-3.081 -24.918,-3.982C-25.673,-4.428 -26.348,-4.948 -26.894,-5.485C-27.303,-5.883 -27.626,-6.307 -27.823,-6.666C-27.922,-6.847 -28.136,-6.929 -28.324,-6.845L-34.637,-4.017C-34.838,-3.927 -34.926,-3.684 -34.824,-3.489C-34.061,-2.03 -33.098,-0.925 -32.099,0.009C-31.008,1.01 -29.85,1.813 -28.659,2.486C-26.273,3.826 -23.748,4.671 -21.181,5.139C-18.616,5.622 -15.979,5.654 -13.534,5.461C-11.035,5.247 -8.467,4.826 -5.849,3.697C-4.547,3.127 -3.226,2.349 -2.029,1.238C-0.841,0.126 0.181,-1.375 0.694,-3.015C1.226,-4.658 1.297,-6.285 1.121,-7.803C0.953,-9.346 0.396,-11.101 -0.716,-12.563C-1.812,-14.043 -3.333,-15.049 -4.75,-15.642C-6.186,-16.254 -7.564,-16.537 -8.88,-16.719C-11.51,-17.054 -13.931,-16.957 -16.279,-16.805C-18.409,-16.674 -20.503,-16.634 -22.333,-16.884C-23.238,-17.011 -24.075,-17.212 -24.703,-17.492C-25.346,-17.77 -25.737,-18.082 -25.974,-18.416C-26.211,-18.753 -26.385,-19.203 -26.448,-19.886C-26.516,-20.593 -26.446,-21.257 -26.267,-21.745C-26.094,-22.247 -25.804,-22.65 -25.357,-23.067C-24.899,-23.473 -24.265,-23.857 -23.504,-24.164C-21.981,-24.79 -20.053,-25.114 -18.087,-25.225C-16.058,-25.333 -14.167,-25.252 -12.325,-24.858C-10.487,-24.481 -8.719,-23.818 -7.214,-22.919C-6.462,-22.473 -5.787,-21.958 -5.24,-21.425C-4.827,-21.026 -4.502,-20.602 -4.299,-20.247C-4.198,-20.072 -3.987,-19.996 -3.803,-20.079L2.525,-22.913C2.724,-23.002 2.813,-23.243 2.714,-23.437C1.965,-24.906 1,-26.018 0,-26.955" style="fill:rgb(90,145,225);fill-rule:nonzero;"/>
            </g>
            <g transform="matrix(4.16667,0,0,4.16667,1409.91,2355.04)">
                <path d="M0,34.6C-0.46,34.285 -1.25,34.354 -1.25,33.327C-1.25,33.304 -1.25,33.285 -1.251,33.267L-0.883,-0.567C-0.881,-0.781 -1.054,-0.956 -1.268,-0.956L-8.436,-0.956C-8.648,-0.956 -8.821,-0.784 -8.821,-0.571L-8.821,13.543C-8.821,13.755 -8.993,13.928 -9.206,13.928L-28.487,13.928C-28.699,13.928 -28.872,13.755 -28.872,13.543L-28.872,-0.571C-28.872,-0.784 -29.044,-0.956 -29.256,-0.956L-36.428,-0.956C-36.641,-0.956 -36.813,-0.784 -36.813,-0.571L-36.813,35.17C-36.813,35.383 -36.641,35.556 -36.428,35.556L-28.058,35.556C-27.259,35.556 -27.214,34.878 -27.621,34.6C-28.081,34.285 -28.871,34.354 -28.871,33.327C-28.871,33.308 -28.871,33.294 -28.872,33.278L-28.872,21.057C-28.872,20.844 -28.699,20.672 -28.487,20.672L-9.206,20.672C-8.993,20.672 -8.821,20.844 -8.821,21.057L-8.821,35.17C-8.821,35.383 -8.648,35.556 -8.436,35.556L-0.437,35.556C0.362,35.556 0.407,34.878 0,34.6" style="fill:rgb(90,145,225);fill-rule:nonzero;"/>
            </g>
            <g transform="matrix(4.16667,0,0,4.16667,1813.12,1046.32)">
                <path d="M0,101.93C10.369,99.237 16.612,90.999 12.624,84.278C6.662,74.229 -12.148,81.284 -21.623,62.198C-32.301,40.685 -36.086,39.954 -35.557,37.386C-35.06,34.969 -29.352,36.522 -22.951,38.277C-17.452,39.786 -12.071,40.793 -7.617,41.509C-4.126,42.092 -0.996,42.418 1.914,41.334C5.328,40.264 8.319,38.04 11.959,35.103C16.205,31.678 17.868,29.191 14.004,22.993C10.432,17.265 4.096,12.929 6.048,6.436C7.863,0.398 6.185,-2.421 -5.205,-14.875C-16.594,-27.328 -20.516,-24.155 -20.312,-29.339C-20.107,-34.523 -20.517,-43.768 -29.04,-46.119C-37.425,-48.432 -38.95,-36.384 -40.957,-33.778C-42.588,-31.661 -51.7,-35.592 -63.019,-33.087C-71.831,-31.135 -84.743,-23.596 -98.174,-13.833C-111.932,-3.83 -127.389,9.482 -138.238,21.574C-149.155,33.74 -149.875,40.588 -149.875,61.009C-149.875,103.923 -118.133,139.965 -75.217,150.085C-74.043,150.362 -72.612,149.949 -72.182,148.822C-52.477,97.246 -64.125,79.901 -50.521,90.295C-27.629,107.784 -5.028,103.236 0,101.93" style="fill:rgb(90,145,225);fill-rule:nonzero;"/>
            </g>
            <g transform="matrix(4.16667,0,0,4.16667,1551.07,1201.2)">
                <path d="M0,115.349C-2.156,114.769 -2.697,113.834 -2.007,112.008C4.585,94.554 7.911,79.05 9.333,65.072C10.06,57.941 11.303,60.103 16.849,63.735C29.92,72.296 55.204,77.207 72.174,67.166C79.046,63.1 83.352,55.356 81.526,47.579C78.481,35.719 60.83,33.861 55.879,30.784C47.399,25.513 47.596,18.911 38.55,7.963C37.586,6.071 41.568,7.393 43.189,7.749C46.664,8.514 89.714,19.967 94.042,21.141C94.705,21.321 95.641,21.698 96.011,20.767C96.281,20.088 95.577,19.592 95.096,19.168C92.5,16.883 89.909,14.593 87.275,12.352C85.774,11.076 84.031,10.787 82.818,12.534C81.472,14.473 76.726,12.606 75.096,11.35C73.919,10.444 74.129,9.369 74.861,8.389C77.265,5.172 78.756,3.215 81.271,0.084C82.386,-1.305 83.76,-1.386 85.177,-0.137C91.986,5.865 99.018,11.618 105.285,18.222C106.844,19.865 107.204,21.401 106.31,23.525C97.676,44.052 72.612,105.401 68.729,112.996C67.342,115.708 65.072,115.993 61.904,115.941C52.25,116.116 5.154,116.735 0,115.349" style="fill:rgb(243,198,64);fill-rule:nonzero;"/>
            </g>
        </g>
    </g>
</svg>
