<?xml version="1.0" encoding="UTF-8" standalone="no"?>
<!DOCTYPE svg PUBLIC "-//W3C//DTD SVG 1.1//EN" "http://www.w3.org/Graphics/SVG/1.1/DTD/svg11.dtd">
<svg width="100%" height="100%" viewBox="0 0 641 34" version="1.1" xmlns="http://www.w3.org/2000/svg" xmlns:xlink="http://www.w3.org/1999/xlink" xml:space="preserve" xmlns:serif="http://www.serif.com/" style="fill-rule:evenodd;clip-rule:evenodd;stroke-linejoin:round;stroke-miterlimit:2;">
    <g transform="matrix(1,0,0,1,-1055,-1677.82)">
        <g transform="matrix(1,0,0,1,0,-1584.4)">
            <g transform="matrix(-1,0,0,1,1860.36,1770.22)">
                <path d="M771.36,1492L756,1492L790.227,1526L805.36,1526L771.36,1492Z" style="fill:rgb(216,230,255);"/>
            </g>
        </g>
        <g transform="matrix(1,0,0,1,0,-1584.4)">
            <g transform="matrix(-1,0,0,1,1885.04,1770.22)">
                <path d="M784.36,1505L190,1505L190,1507L771,1507L790.227,1526L805.36,1526L784.36,1505Z" style="fill:url(#_Linear1);"/>
            </g>
        </g>
    </g>
    <defs>
        <linearGradient id="_Linear1" x1="0" y1="0" x2="1" y2="0" gradientUnits="userSpaceOnUse" gradientTransform="matrix(-163,3,-3,-163,362,1506)"><stop offset="0" style="stop-color:rgb(216,230,255);stop-opacity:1"/><stop offset="1" style="stop-color:rgb(216,230,255);stop-opacity:0.02"/></linearGradient>
    </defs>
</svg>
