<?xml version="1.0" encoding="UTF-8" standalone="no"?>
<!DOCTYPE svg PUBLIC "-//W3C//DTD SVG 1.1//EN" "http://www.w3.org/Graphics/SVG/1.1/DTD/svg11.dtd">
<svg width="100%" height="100%" viewBox="0 0 20 20" version="1.1" xmlns="http://www.w3.org/2000/svg" xmlns:xlink="http://www.w3.org/1999/xlink" xml:space="preserve" xmlns:serif="http://www.serif.com/" style="fill-rule:evenodd;clip-rule:evenodd;stroke-linejoin:round;stroke-miterlimit:2;">
    <g transform="matrix(1,0,0,1,-807,-1943.48)">
        <g transform="matrix(0.99954,0,0,1,0.354871,1113.76)">
            <g transform="matrix(1.25058,0,0,1.25,-1176.4,410.969)">
                <path d="M1593.2,336.44C1593.2,335.645 1592.56,335 1591.76,335L1587.44,335C1586.64,335 1586,335.645 1586,336.44L1586,340.76C1586,341.555 1586.64,342.2 1587.44,342.2L1591.76,342.2C1592.56,342.2 1593.2,341.555 1593.2,340.76L1593.2,336.44ZM1593.2,345.24C1593.2,344.445 1592.56,343.8 1591.76,343.8L1587.44,343.8C1586.64,343.8 1586,344.445 1586,345.24L1586,349.56C1586,350.355 1586.64,351 1587.44,351L1591.76,351C1592.56,351 1593.2,350.355 1593.2,349.56L1593.2,345.24ZM1602,336.44C1602,335.645 1601.36,335 1600.56,335L1596.24,335C1595.44,335 1594.8,335.645 1594.8,336.44L1594.8,340.76C1594.8,341.555 1595.44,342.2 1596.24,342.2L1600.56,342.2C1601.36,342.2 1602,341.555 1602,340.76L1602,336.44ZM1602,345.24C1602,344.445 1601.36,343.8 1600.56,343.8L1596.24,343.8C1595.44,343.8 1594.8,344.445 1594.8,345.24L1594.8,349.56C1594.8,350.355 1595.44,351 1596.24,351L1600.56,351C1601.36,351 1602,350.355 1602,349.56L1602,345.24Z" style="fill:rgb(102,102,102);"/>
            </g>
        </g>
    </g>
</svg>
