<?xml version="1.0" encoding="UTF-8" standalone="no"?>
<!DOCTYPE svg PUBLIC "-//W3C//DTD SVG 1.1//EN" "http://www.w3.org/Graphics/SVG/1.1/DTD/svg11.dtd">
<svg width="100%" height="100%" viewBox="0 0 19 20" version="1.1" xmlns="http://www.w3.org/2000/svg" xmlns:xlink="http://www.w3.org/1999/xlink" xml:space="preserve" xmlns:serif="http://www.serif.com/" style="fill-rule:evenodd;clip-rule:evenodd;stroke-linejoin:round;stroke-miterlimit:2;">
    <g transform="matrix(1,0,0,1,-795,-1597)">
        <g transform="matrix(1,0,0,1,-40,425)">
            <g transform="matrix(0.666667,0,0,0.666667,427.576,373.507)">
                <path d="M617.955,1199.1L617.955,1200.47L615.227,1200.47C614.098,1200.47 613.073,1200.93 612.335,1201.66C611.597,1202.4 611.136,1203.43 611.136,1204.56L611.136,1223.65C611.136,1224.78 611.596,1225.8 612.335,1226.54C613.074,1227.28 614.098,1227.74 615.227,1227.74L634.318,1227.74C635.447,1227.74 636.473,1227.28 637.21,1226.54C637.948,1225.8 638.409,1224.78 638.409,1223.65L638.409,1204.56C638.409,1203.43 637.95,1202.4 637.21,1201.66C636.471,1200.93 635.447,1200.47 634.318,1200.47L631.591,1200.47L631.591,1199.1C631.591,1198.35 630.98,1197.74 630.227,1197.74C629.475,1197.74 628.864,1198.35 628.864,1199.1L628.864,1200.47L620.682,1200.47L620.682,1199.1C620.682,1198.35 620.071,1197.74 619.318,1197.74C618.565,1197.74 617.955,1198.35 617.955,1199.1ZM613.864,1211.38L635.682,1211.38L635.682,1223.65C635.682,1224.02 635.53,1224.36 635.282,1224.61C635.034,1224.86 634.695,1225.01 634.318,1225.01L615.227,1225.01C614.851,1225.01 614.511,1224.86 614.263,1224.61C614.015,1224.36 613.864,1224.02 613.864,1223.65L613.864,1211.38ZM632.017,1219.92C632.017,1219.51 631.683,1219.17 631.271,1219.17L629.78,1219.17C629.368,1219.17 629.034,1219.51 629.034,1219.92L629.034,1221.41C629.034,1221.82 629.368,1222.16 629.78,1222.16L631.271,1222.16C631.683,1222.16 632.017,1221.82 632.017,1221.41L632.017,1219.92ZM620.511,1219.92C620.511,1219.51 620.177,1219.17 619.766,1219.17L618.274,1219.17C617.863,1219.17 617.528,1219.51 617.528,1219.92L617.528,1221.41C617.528,1221.82 617.863,1222.16 618.274,1222.16L619.766,1222.16C620.177,1222.16 620.511,1221.82 620.511,1221.41L620.511,1219.92ZM626.264,1219.92C626.264,1219.51 625.93,1219.17 625.518,1219.17L624.027,1219.17C623.615,1219.17 623.281,1219.51 623.281,1219.92L623.281,1221.41C623.281,1221.82 623.615,1222.16 624.027,1222.16L625.518,1222.16C625.93,1222.16 626.264,1221.82 626.264,1221.41L626.264,1219.92ZM632.017,1214.85C632.017,1214.44 631.683,1214.1 631.271,1214.1L629.78,1214.1C629.368,1214.1 629.034,1214.44 629.034,1214.85L629.034,1216.34C629.034,1216.75 629.368,1217.09 629.78,1217.09L631.271,1217.09C631.683,1217.09 632.017,1216.75 632.017,1216.34L632.017,1214.85ZM620.511,1214.85C620.511,1214.44 620.177,1214.1 619.766,1214.1L618.274,1214.1C617.863,1214.1 617.528,1214.44 617.528,1214.85L617.528,1216.34C617.528,1216.75 617.863,1217.09 618.274,1217.09L619.766,1217.09C620.177,1217.09 620.511,1216.75 620.511,1216.34L620.511,1214.85ZM626.264,1214.85C626.264,1214.44 625.93,1214.1 625.518,1214.1L624.027,1214.1C623.615,1214.1 623.281,1214.44 623.281,1214.85L623.281,1216.34C623.281,1216.75 623.615,1217.09 624.027,1217.09L625.518,1217.09C625.93,1217.09 626.264,1216.75 626.264,1216.34L626.264,1214.85Z" style="fill:rgb(58,104,216);"/>
            </g>
        </g>
    </g>
</svg>
