<?xml version="1.0" encoding="UTF-8" standalone="no"?>
<!DOCTYPE svg PUBLIC "-//W3C//DTD SVG 1.1//EN" "http://www.w3.org/Graphics/SVG/1.1/DTD/svg11.dtd">
<svg width="100%" height="100%" viewBox="0 0 26 22" version="1.1" xmlns="http://www.w3.org/2000/svg" xmlns:xlink="http://www.w3.org/1999/xlink" xml:space="preserve" xmlns:serif="http://www.serif.com/" style="fill-rule:evenodd;clip-rule:evenodd;stroke-linejoin:round;stroke-miterlimit:2;">
    <g transform="matrix(1,0,0,1,-1515,-43.5138)">
        <g transform="matrix(1,0,0,1,0,7)">
            <g id="shopping-cart" transform="matrix(1,0,0,1,1515,32.5138)">
                <path d="M10,24C10,25.094 9.094,26 8,26C6.906,26 6,25.094 6,24C6,22.906 6.906,22 8,22C9.094,22 10,22.906 10,24ZM24,24C24,25.094 23.094,26 22,26C20.906,26 20,25.094 20,24C20,22.906 20.906,22 22,22C23.094,22 24,22.906 24,24ZM26,7L26,15C26,15.5 25.609,15.938 25.109,16L8.797,17.906C8.875,18.265 9,18.625 9,19C9,19.359 8.781,19.688 8.625,20L23,20C23.547,20 24,20.453 24,21C24,21.547 23.547,22 23,22L7,22C6.453,22 6,21.547 6,21C6,20.516 6.703,19.344 6.953,18.859L4.187,6L1,6C0.453,6 0,5.547 0,5C0,4.453 0.453,4 1,4L5,4C6.047,4 6.078,5.25 6.234,6L25,6C25.547,6 26,6.453 26,7Z" style="fill:rgb(58,104,216);fill-rule:nonzero;"/>
            </g>
        </g>
    </g>
</svg>
