<?xml version="1.0" encoding="utf-8"?>
<!-- Generator: Adobe Illustrator 25.4.1, SVG Export Plug-In . SVG Version: 6.00 Build 0)  -->
<svg version="1.1" id="圖層_1" xmlns="http://www.w3.org/2000/svg" xmlns:xlink="http://www.w3.org/1999/xlink" x="0px" y="0px"
	 width="595.3px" height="595.1px" viewBox="0 0 595.3 595.1" style="enable-background:new 0 0 595.3 595.1;" xml:space="preserve"
	>
<style type="text/css">
	.st0{fill-rule:evenodd;clip-rule:evenodd;fill:#3A68D8;}
</style>
<path class="st0" d="M508.5,87.2C454.6,33.5,380.2,0,298,0C215.8,0,141.4,33,87.6,87.2c-53.8,53.7-87.2,128-87.2,210.2
	c0,82.1,33.3,157,87.2,210.7c53.8,53.7,128.3,87.2,210.4,87.2c82.2,0,156.6-33.5,210.5-87.2c53.8-53.7,87.2-128.5,87.2-210.7
	C595.6,215.2,562.3,140.9,508.5,87.2z M430.5,363.9c-6.7,13.3-22.9,18.4-36.3,11.9l-108.2-54.2c-8.9-4.6-15-13.8-15-24.3v-162
	c0-15.1,12.1-27.1,27-27.1c15,0,27.1,11.9,27.1,27.1v145.5l93.3,46.3C431.7,334.1,437.2,350.2,430.5,363.9z"/>
</svg>
