<?xml version="1.0" encoding="utf-8"?>
<!-- Generator: Adobe Illustrator 25.4.1, SVG Export Plug-In . SVG Version: 6.00 Build 0)  -->
<svg version="1.1" id="圖層_1" xmlns:serif="http://www.serif.com/"
	 xmlns="http://www.w3.org/2000/svg" xmlns:xlink="http://www.w3.org/1999/xlink" x="0px" y="0px" width="595.3px" height="463px"
	 viewBox="0 0 595.3 463" style="enable-background:new 0 0 595.3 463;" xml:space="preserve">
<style type="text/css">
	.st0{fill-rule:evenodd;clip-rule:evenodd;fill:#8C8C8C;}
</style>
<path class="st0" d="M165.4,0v33.1h33.1V0h304.3c51.1,0,92.6,41.5,92.6,92.6v277.8c0,51.1-41.5,92.6-92.6,92.6H92.6
	C41.5,463,0,421.5,0,370.4v-72.8c36.5,0,66.1-29.6,66.1-66.1S36.5,165.4,0,165.4V92.6C0,41.5,41.5,0,92.6,0H165.4z M198.4,396.9
	h-33.1v33.1h33.1V396.9z M198.4,330.7h-33.1v33.1h33.1V330.7z M198.4,264.6h-33.1v33.1h33.1V264.6z M198.4,198.4h-33.1v33.1h33.1
	V198.4z M198.4,132.3h-33.1v33.1h33.1V132.3z M198.4,66.1h-33.1v33.1h33.1V66.1z"/>
</svg>
