<?xml version="1.0" encoding="UTF-8" standalone="no"?>
<!DOCTYPE svg PUBLIC "-//W3C//DTD SVG 1.1//EN" "http://www.w3.org/Graphics/SVG/1.1/DTD/svg11.dtd">
<svg width="100%" height="100%" viewBox="0 0 17 16" version="1.1" xmlns="http://www.w3.org/2000/svg" xmlns:xlink="http://www.w3.org/1999/xlink" xml:space="preserve" xmlns:serif="http://www.serif.com/" style="fill-rule:evenodd;clip-rule:evenodd;stroke-linejoin:round;stroke-miterlimit:2;">
    <g transform="matrix(1,0,0,1,-770,-1221)">
        <g transform="matrix(1,0,0,1,0,-830)">
            <g id="message-circle-Feather" transform="matrix(0.0250008,0,0,0.0250008,768.4,2049.4)">
                <path d="M704,367.904L704,352C704,351.456 703.968,350.784 703.936,350.144C699.584,275.328 668.32,207.392 619.392,156.512C568.128,103.168 497.344,68.448 417.76,64.064C417.248,64.032 416.608,64 416,64L400.352,64C355.392,63.488 308.128,73.92 263.904,96.256C224.768,116.128 190.592,143.872 163.456,177.376C121.152,229.664 96.032,295.936 96,367.648C95.552,408.448 104.096,451.168 122.368,491.712L65.664,661.856C63.552,668.128 63.36,675.232 65.664,682.08C71.264,698.848 89.376,707.904 106.144,702.304L276.192,645.632C313.312,662.496 355.68,672.064 400.224,671.968C444.128,671.68 487.072,662.112 526.336,644.256C587.52,616.384 639.616,568.32 671.648,504.256C692.256,464.288 704.128,417.376 704,367.904ZM640,368.096C640.096,407.296 630.656,444.096 614.752,474.944C589.12,526.208 548.128,564.064 499.808,586.048C468.768,600.192 434.688,607.776 399.776,608C360.704,608.096 323.904,598.656 293.056,582.752C285.088,578.624 276.16,578.208 268.256,580.832L146.56,621.408L187.136,499.712C189.952,491.296 189.056,482.528 185.344,475.168C167.68,440.16 159.616,403.04 160,368.352C160.032,311.104 179.808,258.912 213.216,217.664C234.688,191.136 261.792,169.12 292.896,153.344C327.84,135.68 364.96,127.616 399.648,128L414.24,128C477.024,131.424 532.768,158.752 573.248,200.864C611.712,240.896 636.352,294.176 640,352.96L640,368.096Z" style="fill:rgb(178,178,178);fill-rule:nonzero;"/>
            </g>
        </g>
    </g>
</svg>
