<?xml version="1.0" encoding="UTF-8" standalone="no"?>
<!DOCTYPE svg PUBLIC "-//W3C//DTD SVG 1.1//EN" "http://www.w3.org/Graphics/SVG/1.1/DTD/svg11.dtd">
<svg width="100%" height="100%" viewBox="0 0 25 24" version="1.1" xmlns="http://www.w3.org/2000/svg" xmlns:xlink="http://www.w3.org/1999/xlink" xml:space="preserve" xmlns:serif="http://www.serif.com/" style="fill-rule:evenodd;clip-rule:evenodd;stroke-linejoin:round;stroke-miterlimit:2;">
    <g transform="matrix(1,0,0,1,-1573,-658.907)">
        <path id="message-circle-Feather" d="M1597,670.304L1597,669.638C1596.84,666.833 1595.66,664.285 1593.83,662.377C1591.9,660.377 1589.25,659.074 1586.27,658.91L1585.61,658.908C1583.93,658.888 1582.15,659.28 1580.5,660.117C1579.03,660.863 1577.75,661.903 1576.73,663.159C1575.14,665.12 1574.2,667.606 1574.2,670.295C1574.18,671.825 1574.5,673.427 1575.19,674.947L1573.06,681.328C1572.98,681.563 1572.98,681.83 1573.06,682.086C1573.27,682.715 1573.95,683.055 1574.58,682.845L1580.96,680.72C1582.35,681.352 1583.94,681.711 1585.61,681.707C1587.26,681.696 1588.87,681.338 1590.34,680.668C1592.63,679.623 1594.59,677.82 1595.79,675.418C1596.56,673.919 1597.01,672.16 1597,670.304ZM1581.93,669.407C1582.76,669.407 1583.43,670.079 1583.43,670.907C1583.43,671.735 1582.76,672.407 1581.93,672.407C1581.1,672.407 1580.43,671.735 1580.43,670.907C1580.43,670.079 1581.1,669.407 1581.93,669.407ZM1585.93,669.407C1586.76,669.407 1587.43,670.079 1587.43,670.907C1587.43,671.735 1586.76,672.407 1585.93,672.407C1585.1,672.407 1584.43,671.735 1584.43,670.907C1584.43,670.079 1585.1,669.407 1585.93,669.407ZM1590.07,669.407C1590.9,669.407 1591.57,670.079 1591.57,670.907C1591.57,671.735 1590.9,672.407 1590.07,672.407C1589.24,672.407 1588.57,671.735 1588.57,670.907C1588.57,670.079 1589.24,669.407 1590.07,669.407Z" style="fill:white;"/>
    </g>
</svg>
