<?xml version="1.0" encoding="UTF-8" standalone="no"?>
<!DOCTYPE svg PUBLIC "-//W3C//DTD SVG 1.1//EN" "http://www.w3.org/Graphics/SVG/1.1/DTD/svg11.dtd">
<svg width="100%" height="100%" viewBox="0 0 36 30" version="1.1" xmlns="http://www.w3.org/2000/svg" xmlns:xlink="http://www.w3.org/1999/xlink" xml:space="preserve" xmlns:serif="http://www.serif.com/" style="fill-rule:evenodd;clip-rule:evenodd;stroke-linejoin:round;stroke-miterlimit:2;">
    <g transform="matrix(1,0,0,1,-1487.03,-5937)">
        <g transform="matrix(1,0,0,1,0,1034)">
            <g id="_70035College-Graduation.svg" serif:id="70035College Graduation.svg" transform="matrix(0.0902323,0,0,0.0902323,1487.03,4899.69)">
                <path d="M225.092,276.586C217.991,280.941 208.897,283.34 199.485,283.34C190.073,283.34 180.979,280.942 173.878,276.586L57.946,205.484C57.946,205.484 47.482,199.07 47.482,213.6L47.482,284.6C47.482,322.002 115.535,362.323 199.482,362.323C283.429,362.323 351.482,322.003 351.482,284.6L351.482,209.597C351.482,197.934 344.043,203.633 344.043,203.633L225.092,276.586ZM392.289,148.927C401.197,143.464 401.197,134.524 392.289,129.06L215.681,40.745C206.773,35.282 192.196,35.282 183.288,40.745L6.681,129.06C-2.227,134.523 -2.227,143.463 6.681,148.927L183.288,257.242C192.196,262.705 206.773,262.705 215.681,257.242M384.985,309.475L384.985,189.85C384.985,189.85 385.068,184.184 381.706,186.055C379.009,187.556 372.398,191.241 370.069,193.267C367.38,195.604 367.986,200.85 367.986,200.85L367.986,309.475C367.986,311.017 366.661,311.753 366.029,312.125C359.924,315.714 355.819,322.339 355.819,329.934C355.819,341.348 365.071,350.601 376.486,350.601C387.9,350.601 397.152,341.348 397.152,329.934C397.152,322.31 393.017,315.664 386.873,312.084C386.262,311.728 384.985,311.016 384.985,309.475Z" style="fill:rgb(90,145,225);fill-rule:nonzero;"/>
            </g>
        </g>
    </g>
</svg>
