<?xml version="1.0" encoding="UTF-8" standalone="no"?>
<!DOCTYPE svg PUBLIC "-//W3C//DTD SVG 1.1//EN" "http://www.w3.org/Graphics/SVG/1.1/DTD/svg11.dtd">
<svg width="100%" height="100%" viewBox="0 0 36 28" version="1.1" xmlns="http://www.w3.org/2000/svg" xmlns:xlink="http://www.w3.org/1999/xlink" xml:space="preserve" xmlns:serif="http://www.serif.com/" style="fill-rule:evenodd;clip-rule:evenodd;stroke-linejoin:round;stroke-miterlimit:2;">
    <g transform="matrix(1,0,0,1,-1704.47,-5939)">
        <g transform="matrix(1,0,0,1,0,1034)">
            <g id="_561188Email.svg" serif:id="561188Email.svg" transform="matrix(0.0703125,0,0,0.0703125,1704.47,4900.71)">
                <path d="M467,61L45,61C38.073,61 31.588,62.703 25.721,65.51L255,294.789L306.389,245.402C306.389,245.402 306.393,245.397 306.394,245.395C306.395,245.393 306.399,245.391 306.399,245.391L486.286,65.514C480.418,62.705 473.929,61 467,61ZM507.496,86.728L338.213,256.002L507.49,425.279C510.297,419.412 512,412.927 512,406L512,106C512,99.077 510.301,92.593 507.496,86.728ZM4.51,86.721C1.703,92.588 0,99.073 0,106L0,406C0,412.923 1.701,419.409 4.506,425.274L173.789,256L4.51,86.721ZM317.002,277.213L265.606,326.606C262.676,329.536 258.838,331.001 255.001,331.001C251.164,331.001 247.325,329.536 244.396,326.606L195,277.211L25.714,446.486C31.582,449.295 38.071,451 45,451L467,451C473.927,451 480.412,449.297 486.279,446.49L317.002,277.213Z" style="fill:rgb(42,87,164);fill-rule:nonzero;"/>
            </g>
        </g>
    </g>
</svg>
