<?xml version="1.0" encoding="UTF-8" standalone="no"?>
<!DOCTYPE svg PUBLIC "-//W3C//DTD SVG 1.1//EN" "http://www.w3.org/Graphics/SVG/1.1/DTD/svg11.dtd">
<svg width="100%" height="100%" viewBox="0 0 22 15" version="1.1" xmlns="http://www.w3.org/2000/svg" xmlns:xlink="http://www.w3.org/1999/xlink" xml:space="preserve" xmlns:serif="http://www.serif.com/" style="fill-rule:evenodd;clip-rule:evenodd;stroke-linejoin:round;stroke-miterlimit:2;">
    <g transform="matrix(1,0,0,1,-1447.29,-2316.62)">
        <path d="M1464.84,2323L1449,2323C1448.45,2323 1448,2323.45 1448,2324C1448,2324.55 1448.45,2325 1449,2325L1465,2325C1465.06,2325 1465.12,2324.99 1465.18,2324.98L1461.22,2328.95C1460.83,2329.34 1460.83,2329.97 1461.22,2330.36C1461.61,2330.75 1462.24,2330.75 1462.63,2330.36L1467.81,2325.18C1467.95,2325.14 1468.09,2325.06 1468.2,2324.94C1468.34,2324.8 1468.43,2324.64 1468.47,2324.46C1468.67,2324.09 1468.61,2323.61 1468.29,2323.29C1468.12,2323.12 1467.9,2323.02 1467.67,2323L1462.54,2317.87C1462.15,2317.48 1461.52,2317.48 1461.13,2317.87C1460.74,2318.26 1460.74,2318.89 1461.13,2319.29L1464.84,2323ZM1465.99,2324.15C1465.99,2324.16 1465.99,2324.17 1465.98,2324.18L1466,2324.16L1465.99,2324.15Z" style="fill:rgb(58,104,216);"/>
    </g>
</svg>
