<?xml version="1.0" encoding="utf-8"?>
<!-- Generator: Adobe Illustrator 25.4.1, SVG Export Plug-In . SVG Version: 6.00 Build 0)  -->
<svg version="1.1" id="圖層_1" xmlns:serif="http://www.serif.com/"
	 xmlns="http://www.w3.org/2000/svg" xmlns:xlink="http://www.w3.org/1999/xlink" x="0px" y="0px" width="595.3px" height="595px"
	 viewBox="0 0 595.3 595" style="enable-background:new 0 0 595.3 595;" xml:space="preserve">
<style type="text/css">
	.st0{fill-rule:evenodd;clip-rule:evenodd;fill:#3A68D8;}
</style>
<path class="st0" d="M525.6,177.1h-62.8V161c0-88.9-74-161-165.3-161S132.2,72.1,132.2,161v16.1H69.4C31.1,177.1,0,207.5,0,244.8
	v282.6C0,564.7,31.1,595,69.4,595h456.2c38.3,0,69.4-30.3,69.4-67.6V244.8C595,207.5,563.9,177.1,525.6,177.1z M165.3,161
	c0-71.1,59.2-128.8,132.2-128.8S429.7,89.9,429.7,161v16.1H165.3V161z M198.3,322.1c0,8.9-7.3,16.1-16.5,16.1h-33.1
	c-9.3,0-16.5-7.2-16.5-16.1v-64.4c0-8.9,7.3-16.1,16.5-16.1h33.1c9.3,0,16.5,7.2,16.5,16.1V322.1z M462.8,322.1
	c0,8.9-7.3,16.1-16.5,16.1h-33.1c-9.3,0-16.5-7.2-16.5-16.1v-64.4c0-8.9,7.3-16.1,16.5-16.1h33.1c9.3,0,16.5,7.2,16.5,16.1V322.1z"
	/>
</svg>
