<?xml version="1.0" encoding="UTF-8" standalone="no"?>
<!DOCTYPE svg PUBLIC "-//W3C//DTD SVG 1.1//EN" "http://www.w3.org/Graphics/SVG/1.1/DTD/svg11.dtd">
<svg width="100%" height="100%" viewBox="0 0 36 36" version="1.1" xmlns="http://www.w3.org/2000/svg" xmlns:xlink="http://www.w3.org/1999/xlink" xml:space="preserve" xmlns:serif="http://www.serif.com/" style="fill-rule:evenodd;clip-rule:evenodd;stroke-linejoin:round;stroke-miterlimit:2;">
    <g transform="matrix(1,0,0,1,-1598.77,-5934)">
        <g transform="matrix(1,0,0,1,0,1034)">
            <g id="_2427404Rocket.svg" serif:id="2427404Rocket.svg" transform="matrix(0.0703126,0,0,0.0703126,1598.76,4900)">
                <path d="M149.067,136.22C111.475,187.363 85.189,236.008 75.125,257.488C72.328,263.456 66.25,267.179 59.662,266.974L43.093,266.458C3.275,265.238 -14.939,216.011 14.592,189.172L75.713,133.594C92.344,118.48 113.65,110.309 135.419,109.952C149.078,109.728 157.158,125.212 149.067,136.22ZM402.047,376.593C402.273,362.889 386.742,354.878 375.702,362.999C323.853,401.138 275.609,426.939 254.546,436.83C248.57,439.637 244.819,445.711 245.025,452.309L245.542,468.907C246.764,508.78 296.035,526.901 322.828,497.408L378.406,436.287C393.517,419.659 401.687,398.358 402.047,376.593ZM48.72,386.28L70.108,364.892C76.558,358.443 76.558,347.985 70.108,341.535C63.658,335.085 53.2,335.085 46.751,341.535L25.363,362.923C14.925,373.36 22.463,391.117 37.041,391.117C41.269,391.118 45.495,389.505 48.72,386.28ZM149.899,487.459L171.286,466.071C177.735,459.622 177.735,449.164 171.286,442.714C164.836,436.262 154.379,436.264 147.928,442.714L126.542,464.102C116.104,474.54 123.643,492.296 138.221,492.296C142.447,492.296 146.674,490.684 149.899,487.459ZM62.588,472.77L135.209,400.147C141.66,393.698 141.66,383.24 135.209,376.79C128.759,370.34 118.302,370.34 111.852,376.79L39.23,449.412C28.792,459.85 36.331,477.607 50.908,477.607C55.136,477.607 59.363,475.994 62.588,472.77ZM407.391,312.167C383.548,332.602 358.998,350.934 333.343,367.636C327.53,371.42 319.852,370.591 314.948,365.687L146.312,197.052C141.408,192.148 140.579,184.47 144.363,178.657C162.684,150.514 180.93,126.672 201.257,102.958C270.019,23.305 376.016,-14.04 479.743,4.82L491.717,6.987C498.478,8.216 503.784,13.522 505.013,20.283L507.18,32.257C525.317,131.899 492.31,238.909 407.391,312.167ZM392.681,119.318C364.923,91.56 319.761,91.56 292.004,119.318C264.235,147.076 264.235,192.248 292.004,219.995C319.739,247.75 364.912,247.764 392.681,219.995C420.439,192.249 420.439,147.076 392.681,119.318ZM134.421,231.876C127.438,224.893 115.645,226.615 111.047,235.355C107.885,241.363 104.906,247.212 101.911,253.318C91.814,273.868 95.908,298.664 112.192,314.934L197.066,399.808C207.388,410.13 221.138,415.57 235.084,415.57C249.695,415.57 258.323,410.594 276.645,400.953C285.385,396.355 287.107,384.562 280.124,377.579L134.421,231.876Z" style="fill:rgb(42,87,164);fill-rule:nonzero;"/>
            </g>
        </g>
    </g>
</svg>
