<?xml version="1.0" encoding="UTF-8" standalone="no"?>
<!DOCTYPE svg PUBLIC "-//W3C//DTD SVG 1.1//EN" "http://www.w3.org/Graphics/SVG/1.1/DTD/svg11.dtd">
<svg width="100%" height="100%" viewBox="0 0 19 20" version="1.1" xmlns="http://www.w3.org/2000/svg" xmlns:xlink="http://www.w3.org/1999/xlink" xml:space="preserve" xmlns:serif="http://www.serif.com/" style="fill-rule:evenodd;clip-rule:evenodd;stroke-linejoin:round;stroke-miterlimit:2;">
    <g transform="matrix(1,0,0,1,-1586.76,-255)">
        <g id="share-2-feather.svg" transform="matrix(0.0284091,0,0,0.0284091,1584.94,254.091)">
            <path d="M452.8,194.816L282.944,293.92C282.816,293.76 282.656,293.632 282.496,293.472C259.392,270.368 227.328,256 192,256C156.672,256 124.608,270.368 101.504,293.504C78.4,316.64 64,348.672 64,384C64,419.328 78.368,451.392 101.504,474.496C124.64,497.6 156.672,512 192,512C227.328,512 259.392,497.632 282.496,474.496C282.656,474.336 282.784,474.208 282.944,474.048L452.832,573.056C449.696,584.16 448,595.904 448,608C448,643.328 462.368,675.392 485.504,698.496C508.64,721.6 540.672,736 576,736C611.328,736 643.392,721.632 666.496,698.496C689.6,675.36 704,643.328 704,608C704,572.672 689.632,540.608 666.496,517.504C643.36,494.4 611.328,480 576,480C540.672,480 508.608,494.368 485.504,517.504C485.408,517.6 485.28,517.728 485.184,517.824L315.2,418.784C318.336,407.712 320,396.064 320,384C320,371.936 318.336,360.256 315.2,349.184L485.056,250.048C485.184,250.208 485.344,250.336 485.504,250.496C508.608,273.632 540.672,288 576,288C611.328,288 643.392,273.632 666.496,250.496C689.6,227.36 704,195.328 704,160C704,124.672 689.632,92.608 666.496,69.504C643.36,46.4 611.328,32 576,32C540.672,32 508.608,46.368 485.504,69.504C462.4,92.64 448,124.672 448,160C448,172.064 449.664,183.744 452.8,194.816Z" style="fill:rgb(90,145,225);fill-rule:nonzero;"/>
        </g>
    </g>
</svg>
