<?xml version="1.0" encoding="utf-8"?>
<!-- Generator: Adobe Illustrator 25.4.1, SVG Export Plug-In . SVG Version: 6.00 Build 0)  -->
<svg version="1.1" id="圖層_1" xmlns:serif="http://www.serif.com/"
	 xmlns="http://www.w3.org/2000/svg" xmlns:xlink="http://www.w3.org/1999/xlink" x="0px" y="0px" width="595.3px" height="596px"
	 viewBox="0 0 595.3 596" style="enable-background:new 0 0 595.3 596;" xml:space="preserve">
<style type="text/css">
	.st0{fill:#778BBD;}
</style>
<g>
	<path class="st0" d="M316.8,587.6c-9.6,0-19.3-3.5-26.9-10.7c-15.8-14.9-16.5-39.7-1.7-55.5l209.8-223l-209.8-223
		c-14.9-15.8-14.1-40.6,1.7-55.5c15.8-14.9,40.6-14.1,55.5,1.7l235.2,249.9c14.2,15.1,14.2,38.7,0,53.8L345.4,575.3
		C337.7,583.5,327.3,587.6,316.8,587.6z M42,587.6c-9.7,0-19.3-3.5-26.9-10.7c-15.8-14.9-16.5-39.7-1.7-55.5l209.8-223L13.4,75.5
		C-1.5,59.7-0.7,34.9,15.1,20C30.9,5.2,55.7,5.9,70.6,21.7l235.2,249.9c14.2,15.1,14.2,38.7,0,53.8L70.6,575.3
		C62.9,583.5,52.4,587.6,42,587.6z"/>
</g>
</svg>
