<?xml version="1.0" encoding="utf-8"?>
<!-- Generator: Adobe Illustrator 25.4.1, SVG Export Plug-In . SVG Version: 6.00 Build 0)  -->
<svg version="1.1" id="圖層_1" xmlns:serif="http://www.serif.com/"
	 xmlns="http://www.w3.org/2000/svg" xmlns:xlink="http://www.w3.org/1999/xlink" x="0px" y="0px" width="595.3px" height="562.2px"
	 viewBox="0 0 595.3 562.2" style="enable-background:new 0 0 595.3 562.2;" xml:space="preserve">
<style type="text/css">
	.st0{fill:#3A68D8;}
</style>
<path class="st0" d="M463,0H132.3v33.1H463V0z M529.1,66.1h-463v33.1h463V66.1z M530.8,132.3H64.5C28.9,132.3,0,161.2,0,196.8v300.9
	c0,35.6,28.9,64.5,64.5,64.5h466.3c35.6,0,64.5-28.9,64.5-64.5V196.8C595.3,161.2,566.4,132.3,530.8,132.3z M389,361.5l-133.9,82.7
	c-2.4,1.6-5.2,2.3-7.9,2.3c-2.7,0-5.4-0.8-7.9-2.1c-4.9-3.1-7.9-8.5-7.9-14.5V264.6c0-5.9,2.9-11.4,7.9-14.5
	c4.9-2.8,11.1-2.8,15.7,0.3L389,333.1c4.9,2.8,7.9,8.3,7.9,14.2C396.9,353.2,393.9,358.6,389,361.5z"/>
</svg>
