<?xml version="1.0" encoding="UTF-8" standalone="no"?>
<!DOCTYPE svg PUBLIC "-//W3C//DTD SVG 1.1//EN" "http://www.w3.org/Graphics/SVG/1.1/DTD/svg11.dtd">
<svg width="100%" height="100%" viewBox="0 0 18 18" version="1.1" xmlns="http://www.w3.org/2000/svg" xmlns:xlink="http://www.w3.org/1999/xlink" xml:space="preserve" xmlns:serif="http://www.serif.com/" style="fill-rule:evenodd;clip-rule:evenodd;stroke-linejoin:round;stroke-miterlimit:2;">
    <g transform="matrix(1,0,0,1,-1586,-380)">
        <g transform="matrix(1,0,0,1,44,-25)">
            <g id="_3602181history" serif:id="3602181history" transform="matrix(0.0351562,0,0,0.0351562,1542,405)">
                <path d="M453.333,0L58.667,0C26.304,0 0,26.304 0,58.667L0,346.667C0,379.029 26.304,405.333 58.667,405.333L85.333,405.333L85.333,496C85.333,502.485 89.237,508.309 95.211,510.784C97.195,511.595 99.264,512 101.333,512C105.493,512 109.589,510.379 112.64,507.307L214.613,405.333L453.333,405.333C485.696,405.333 512,379.029 512,346.667L512,58.667C512,26.304 485.696,0 453.333,0ZM256,341.333C179.541,341.333 117.333,279.125 117.333,202.667C117.333,126.208 179.541,64 256,64C332.459,64 394.667,126.208 394.667,202.667C394.667,279.125 332.459,341.333 256,341.333ZM288,256C282.539,256 277.077,253.909 272.917,249.749L240.917,217.749C236.907,213.76 234.667,208.341 234.667,202.667L234.667,149.333C234.667,137.536 244.224,128 256,128C267.776,128 277.333,137.536 277.333,149.333L277.333,193.835L303.083,219.584C311.424,227.925 311.424,241.408 303.083,249.749C298.923,253.909 293.461,256 288,256Z" style="fill:rgb(140,140,140);fill-rule:nonzero;"/>
            </g>
        </g>
    </g>
</svg>
