<?xml version="1.0" encoding="UTF-8" standalone="no"?>
<!DOCTYPE svg PUBLIC "-//W3C//DTD SVG 1.1//EN" "http://www.w3.org/Graphics/SVG/1.1/DTD/svg11.dtd">
<svg width="100%" height="100%" viewBox="0 0 160 73" version="1.1" xmlns="http://www.w3.org/2000/svg" xmlns:xlink="http://www.w3.org/1999/xlink" xml:space="preserve" xmlns:serif="http://www.serif.com/" style="fill-rule:evenodd;clip-rule:evenodd;stroke-linejoin:round;stroke-miterlimit:2;">
    <g transform="matrix(1,0,0,1,-110,-20)">
        <g transform="matrix(0.771973,0,0,0.771973,-99.3619,-27.3492)">
            <g>
                <g transform="matrix(1,0,0,1,436.755,98.3131)">
                    <path d="M0,3.417L12.774,3.417C13.045,3.417 13.274,3.218 13.313,2.949L13.702,0.622C13.749,0.294 13.494,0 13.163,0L0,0C-0.301,0 -0.545,0.244 -0.545,0.545L-0.545,2.872C-0.545,3.173 -0.301,3.417 0,3.417" style="fill:rgb(90,145,225);fill-rule:nonzero;"/>
                </g>
                <g transform="matrix(1,0,0,1,436.21,104.843)">
                    <path d="M0,2.725C0,3.026 0.244,3.269 0.545,3.269L13.319,3.269C13.59,3.269 13.819,3.07 13.858,2.802L14.247,0.079C14.294,-0.25 14.039,-0.544 13.708,-0.544L0.545,-0.544C0.244,-0.544 0,-0.299 0,0.001L0,2.725Z" style="fill:rgb(90,145,225);fill-rule:nonzero;"/>
                </g>
                <g transform="matrix(1,0,0,1,441.431,121.245)">
                    <path d="M0,-6.314C0,-6.615 0.244,-6.859 0.544,-6.859L3.396,-6.859C3.696,-6.859 3.94,-6.615 3.94,-6.314L3.94,-0.001C3.94,0.3 3.696,0.544 3.396,0.544L0.544,0.544C0.244,0.544 0,0.3 0,-0.001L0,-6.314ZM-5.153,3.813L8.57,3.813C8.871,3.813 9.115,3.569 9.115,3.268L9.115,-9.582C9.115,-9.882 8.871,-10.127 8.57,-10.127L-4.651,-10.127C-4.943,-10.127 -5.184,-9.896 -5.195,-9.603L-5.697,3.247C-5.709,3.555 -5.462,3.813 -5.153,3.813" style="fill:rgb(90,145,225);fill-rule:nonzero;"/>
                </g>
                <g transform="matrix(1,0,0,1,459.18,114.589)">
                    <path d="M0,-16.838C0,-17.139 0.244,-17.383 0.544,-17.383L3.112,-17.383C3.416,-17.383 3.661,-17.134 3.656,-16.83L3.633,-14.377C3.629,-14.079 3.386,-13.841 3.089,-13.841L0.544,-13.841C0.244,-13.841 0,-14.084 0,-14.386L0,-16.838ZM0,-23.104C0,-23.404 0.244,-23.649 0.544,-23.649L3.209,-23.649C3.513,-23.649 3.758,-23.4 3.753,-23.095L3.73,-20.643C3.726,-20.345 3.483,-20.107 3.186,-20.107L0.544,-20.107C0.244,-20.107 0,-20.35 0,-20.651L0,-23.104ZM8.977,-16.838C8.977,-17.139 9.221,-17.383 9.521,-17.383L12.234,-17.383C12.535,-17.383 12.779,-17.139 12.779,-16.838L12.779,-14.386C12.779,-14.084 12.535,-13.841 12.234,-13.841L9.521,-13.841C9.221,-13.841 8.977,-14.084 8.977,-14.386L8.977,-16.838ZM8.977,-23.104C8.977,-23.404 9.221,-23.649 9.521,-23.649L12.234,-23.649C12.535,-23.649 12.779,-23.404 12.779,-23.104L12.779,-20.651C12.779,-20.35 12.535,-20.107 12.234,-20.107L9.521,-20.107C9.221,-20.107 8.977,-20.35 8.977,-20.651L8.977,-23.104ZM-4.657,-26.882L-5.169,-10.092C-5.179,-9.785 -4.932,-9.531 -4.625,-9.531L2.991,-9.531C3.295,-9.531 3.54,-9.282 3.535,-8.979L3.517,-7.357C3.513,-7.059 3.27,-6.819 2.973,-6.819L-5.866,-6.819C-6.167,-6.819 -6.411,-6.576 -6.411,-6.275L-6.411,-3.947C-6.411,-3.647 -6.167,-3.403 -5.866,-3.403L2.898,-3.403C3.203,-3.403 3.448,-3.154 3.443,-2.85L3.254,10.018C3.25,10.323 3.495,10.572 3.799,10.572L8.42,10.572C8.721,10.572 8.965,10.328 8.965,10.027L8.965,-2.859C8.965,-3.159 9.209,-3.403 9.51,-3.403L17.604,-3.403C17.875,-3.403 18.105,-3.603 18.144,-3.871L18.533,-6.198C18.58,-6.526 18.325,-6.819 17.993,-6.819L9.51,-6.819C9.209,-6.819 8.965,-7.064 8.965,-7.364L8.965,-8.986C8.965,-9.287 9.209,-9.531 9.51,-9.531L16.853,-9.531C17.153,-9.531 17.397,-9.776 17.397,-10.076L17.397,-26.865C17.397,-27.166 17.153,-27.41 16.864,-27.41L-4.101,-27.41C-4.407,-27.41 -4.648,-27.176 -4.657,-26.882" style="fill:rgb(90,145,225);fill-rule:nonzero;"/>
                </g>
                <g transform="matrix(1,0,0,1,406.772,100.493)">
                    <path d="M0,-13.315L-3.416,-13.315C-3.719,-13.315 -3.965,-13.066 -3.96,-12.762L-3.877,-6.919L-3.866,-6.12C-3.861,-5.849 -3.862,-5.616 -3.846,-5.24C-3.808,-4.552 -3.728,-3.791 -3.374,-2.908C-3.177,-2.462 -2.928,-1.996 -2.528,-1.566C-2.145,-1.142 -1.648,-0.771 -1.153,-0.544C-0.139,-0.062 0.734,-0.018 1.48,0L4.284,-0.046C5.385,-0.044 6.486,-0.057 7.588,-0.036L9.24,-0.007C9.87,-0.001 10.504,-0.021 11.121,-0.055C11.742,-0.094 12.357,-0.163 12.991,-0.253C13.456,-0.321 13.918,-0.402 14.429,-0.53C14.748,-0.61 14.924,-0.956 14.802,-1.261L13.409,-4.758C13.302,-5.026 12.995,-5.162 12.723,-5.07C12.517,-5 12.287,-4.934 12.057,-4.874C11.609,-4.761 11.133,-4.681 10.658,-4.614C10.179,-4.545 9.712,-4.505 9.24,-4.501L7.588,-4.472C6.486,-4.452 5.385,-4.463 4.284,-4.461L1.127,-4.513C0.671,-4.52 0.521,-4.699 0.465,-5.047C0.454,-5.156 0.445,-5.272 0.445,-5.401L0.458,-6.741C0.46,-6.958 0.637,-7.132 0.854,-7.132L11.559,-7.132C11.83,-7.132 12.06,-7.332 12.098,-7.6L12.487,-9.532C12.534,-9.86 12.279,-10.153 11.948,-10.153L1.069,-10.153C0.765,-10.153 0.52,-10.402 0.524,-10.706L0.545,-12.762C0.549,-13.066 0.304,-13.315 0,-13.315" style="fill:rgb(90,145,225);fill-rule:nonzero;"/>
                </g>
                <g transform="matrix(1,0,0,1,406.797,115.245)">
                    <path d="M0,-13.789L-3.417,-13.789C-3.72,-13.789 -3.965,-13.541 -3.961,-13.237L-3.878,-7.125L-3.867,-6.292C-3.862,-6.008 -3.863,-5.767 -3.846,-5.38C-3.808,-4.671 -3.727,-3.888 -3.367,-2.985C-3.169,-2.531 -2.916,-2.055 -2.511,-1.615C-2.125,-1.181 -1.619,-0.801 -1.114,-0.566C-0.077,-0.066 0.822,-0.02 1.592,0L4.537,-0.046C5.685,-0.044 6.833,-0.057 7.98,-0.036L9.702,-0.008C10.354,-0.001 11.012,-0.021 11.653,-0.058C12.297,-0.1 12.936,-0.171 13.591,-0.267C14.079,-0.338 14.564,-0.424 15.098,-0.56C15.417,-0.641 15.592,-0.986 15.47,-1.291L14.075,-4.79C13.968,-5.057 13.662,-5.194 13.391,-5.101C13.165,-5.024 12.911,-4.952 12.657,-4.887C12.187,-4.769 11.687,-4.686 11.189,-4.616C10.688,-4.547 10.198,-4.505 9.702,-4.5L7.98,-4.472C6.833,-4.451 5.685,-4.463 4.537,-4.461L1.276,-4.513C0.78,-4.52 0.558,-4.663 0.467,-5.146C0.455,-5.267 0.445,-5.395 0.445,-5.537L0.45,-6.455L0.458,-7.025C0.46,-7.242 0.637,-7.416 0.854,-7.416L11.721,-7.416C11.992,-7.416 12.222,-7.616 12.26,-7.884L12.649,-9.815C12.696,-10.143 12.441,-10.437 12.11,-10.437L1.067,-10.437C0.748,-10.437 0.519,-10.685 0.522,-10.989L0.545,-13.237C0.549,-13.541 0.304,-13.789 0,-13.789" style="fill:rgb(90,145,225);fill-rule:nonzero;"/>
                </g>
                <g transform="matrix(1,0,0,1,395.016,109.828)">
                    <path d="M0,-5.119C-2.494,-4.338 -4.946,-3.828 -7.248,-3.463C-7.598,-3.407 -7.901,-3.699 -7.871,-4.053C-7.813,-4.729 -7.768,-6.222 -7.735,-6.946C-7.723,-7.237 -7.484,-7.471 -7.193,-7.471L-0.16,-7.471C0.141,-7.471 0.385,-7.226 0.385,-6.926L0.385,-5.643C0.385,-5.404 0.228,-5.19 0,-5.119M-11.766,-10.887C-12.067,-10.887 -12.311,-10.643 -12.311,-10.343L-12.311,-8.555C-12.374,-3.456 -13.059,0.375 -14.353,2.846C-14.484,3.096 -14.416,3.402 -14.182,3.56L-11.181,5.589C-10.917,5.768 -10.55,5.687 -10.399,5.406C-9.645,4.006 -9.052,1.963 -8.613,0.06C-8.563,-0.16 -8.385,-0.328 -8.162,-0.358C-5.715,-0.694 -3.062,-1.165 -0.307,-1.919C0.041,-2.014 0.385,-1.757 0.385,-1.397L0.385,0.49C0.385,0.791 0.141,1.034 -0.16,1.034L-2.81,1.034C-3.11,1.034 -3.354,1.278 -3.354,1.579L-3.354,4.872C-3.354,5.173 -3.11,5.417 -2.81,5.417L1.162,5.417C5.131,5.417 5.015,2.627 5.015,1.258L5.015,-10.343C5.015,-10.643 4.771,-10.887 4.47,-10.887L-11.766,-10.887Z" style="fill:rgb(90,145,225);fill-rule:nonzero;"/>
                </g>
                <g transform="matrix(1,0,0,1,399.127,125.25)">
                    <path d="M0,-7.162L-4.093,-7.162C-4.371,-7.162 -4.556,-6.943 -4.631,-6.675C-5.239,-4.493 -6.02,-2.573 -6.438,-0.66C-6.512,-0.32 -6.255,0 -5.907,0L-0.937,-0.001C-0.678,-0.001 -0.455,-0.181 -0.402,-0.433C-0.002,-2.383 0.345,-4.447 0.545,-6.566C0.575,-6.886 0.321,-7.162 0,-7.162" style="fill:rgb(90,145,225);fill-rule:nonzero;"/>
                </g>
                <g transform="matrix(1,0,0,1,403.645,118.33)">
                    <path d="M0,6.295C0.052,6.548 0.276,6.728 0.535,6.728L5.504,6.729C5.852,6.729 6.11,6.408 6.035,6.068C5.617,4.155 4.837,2.235 4.228,0.054C4.153,-0.215 3.968,-0.434 3.69,-0.434L-0.402,-0.434C-0.723,-0.434 -0.978,-0.157 -0.948,0.162C-0.748,2.281 -0.401,4.346 0,6.295" style="fill:rgb(90,145,225);fill-rule:nonzero;"/>
                </g>
                <g transform="matrix(1,0,0,1,387.657,118.407)">
                    <path d="M0,6.524C0.871,4.598 1.704,2.539 2.377,0.388C2.487,0.038 2.221,-0.319 1.854,-0.319L-2.875,-0.319C-3.105,-0.319 -3.308,-0.174 -3.385,0.043C-4.138,2.155 -5.446,4.19 -6.354,6.061C-6.529,6.423 -6.267,6.843 -5.864,6.843L-0.498,6.843C-0.283,6.843 -0.088,6.719 0,6.524" style="fill:rgb(90,145,225);fill-rule:nonzero;"/>
                </g>
                <g transform="matrix(1,0,0,1,451.916,86.4757)">
                    <path d="M0,8.396L0.417,4.856C0.455,4.532 0.202,4.248 -0.125,4.248L-5.579,4.248C-5.792,4.248 -5.986,4.125 -6.075,3.932C-6.671,2.638 -7.249,1.28 -7.75,-0.121C-7.827,-0.336 -8.029,-0.481 -8.259,-0.481L-12.266,-0.481C-12.633,-0.481 -12.899,-0.125 -12.789,0.226C-12.393,1.48 -11.937,2.698 -11.451,3.874C-11.377,4.052 -11.508,4.248 -11.702,4.248L-17.02,4.248C-17.321,4.248 -17.564,4.491 -17.564,4.792L-17.564,8.333C-17.564,8.633 -17.321,8.877 -17.02,8.877L-0.541,8.877C-0.265,8.877 -0.032,8.67 0,8.396" style="fill:rgb(90,145,225);fill-rule:nonzero;"/>
                </g>
                <g transform="matrix(1,0,0,1,456.122,125.25)">
                    <path d="M0,-11.401C-0.301,-11.401 -0.545,-11.157 -0.545,-10.856L-0.545,-7.162L-0.547,-7.162C-1.148,-4.902 -1.898,-2.724 -2.641,-0.734C-2.774,-0.378 -2.511,0 -2.131,0L1.217,0C1.45,0 1.657,-0.144 1.733,-0.364C2.444,-2.413 3.122,-4.612 3.653,-6.911C3.691,-7.077 3.71,-7.249 3.71,-7.42L3.71,-10.856C3.71,-11.157 3.467,-11.401 3.166,-11.401L0,-11.401Z" style="fill:rgb(90,145,225);fill-rule:nonzero;"/>
                </g>
                <g transform="matrix(1,0,0,1,478.18,114.929)">
                    <path d="M0,9.241C-0.513,8.889 -0.994,9.256 -1.378,8.213C-1.95,6.609 -2.505,4.91 -2.971,3.159L-2.973,3.159L-2.973,-0.535C-2.973,-0.836 -3.217,-1.08 -3.518,-1.08L-6.684,-1.08C-6.985,-1.08 -7.229,-0.836 -7.229,-0.535L-7.229,2.901C-7.229,3.072 -7.209,3.244 -7.171,3.41C-6.639,5.709 -5.962,7.908 -5.251,9.957C-5.175,10.177 -4.968,10.321 -4.735,10.321L-1.387,10.32L-0.493,10.32C0.409,10.32 0.46,9.555 0,9.241" style="fill:rgb(90,145,225);fill-rule:nonzero;"/>
                </g>
                <g transform="matrix(1,0,0,1,420.577,118.09)">
                    <path d="M0,7.16L0.747,7.16C1.648,7.16 1.7,6.395 1.24,6.081C0.729,5.731 0.333,6.055 -0.135,5.063C-0.829,3.567 -1.9,1.988 -2.48,0.36C-2.558,0.143 -2.76,-0.001 -2.99,-0.001L-7.719,-0.001C-8.086,-0.001 -8.353,0.355 -8.243,0.706C-7.569,2.856 -6.736,4.916 -5.865,6.842C-5.777,7.037 -5.582,7.161 -5.368,7.161L-0.001,7.161L0,7.16" style="fill:rgb(90,145,225);fill-rule:nonzero;"/>
                </g>
                <g transform="matrix(1,0,0,1,383.218,85.9948)">
                    <path d="M0,10.662L16.294,10.662C16.594,10.662 16.832,10.407 16.811,10.107L16.369,3.713C16.35,3.441 16.125,3.231 15.853,3.231L12.88,3.231C12.597,3.231 12.367,3.461 12.367,3.744L12.367,6.516C12.367,6.802 12.133,7.035 11.848,7.035L6.526,7.035C6.043,7.035 5.821,6.427 6.196,6.123C7.597,4.987 9.966,3.311 12.382,0.665C12.615,0.411 12.437,0 12.092,0L7.613,0C7.409,0 7.213,0.081 7.065,0.223C4.648,2.558 2.089,4.411 -0.28,5.96C-0.427,6.056 -0.513,6.217 -0.513,6.392L-0.513,10.148C-0.513,10.431 -0.282,10.662 0,10.662" style="fill:rgb(90,145,225);fill-rule:nonzero;"/>
                </g>
                <g transform="matrix(1,0,0,1,444.91,149.063)">
                    <path d="M0,-14.462L-2.839,-14.462C-2.923,-14.462 -2.992,-14.394 -2.992,-14.31L-2.992,-5.073C-2.992,-4.93 -3.173,-4.866 -3.263,-4.979L-10.882,-14.462L-13.771,-14.462C-13.855,-14.462 -13.923,-14.395 -13.924,-14.312L-14.078,-0.154C-14.079,-0.069 -14.01,0 -13.925,0L-10.613,0C-10.297,0 -10.279,-0.268 -10.44,-0.378C-10.618,-0.5 -10.918,-0.479 -10.934,-0.854L-10.934,-9.44C-10.934,-9.584 -10.752,-9.648 -10.663,-9.535L-3.001,0L-0.154,0C-0.07,0 -0.002,-0.067 -0.001,-0.15L0.152,-14.308C0.153,-14.393 0.084,-14.462 0,-14.462" style="fill:rgb(90,145,225);fill-rule:nonzero;"/>
                </g>
                <g transform="matrix(1,0,0,1,421.042,137.944)">
                    <path d="M0,7.775C-2.323,7.775 -4.212,5.945 -4.212,3.888C-4.212,1.831 -2.323,0.001 0,0.001C2.323,0.001 4.212,1.831 4.212,3.888C4.212,5.945 2.323,7.775 0,7.775M0,-2.988C-4.057,-2.988 -7.358,0.096 -7.358,3.888C-7.358,7.679 -4.057,10.763 0,10.763C4.057,10.763 7.358,7.679 7.358,3.888C7.358,0.096 4.057,-2.988 0,-2.988" style="fill:rgb(90,145,225);fill-rule:nonzero;"/>
                </g>
                <g transform="matrix(1,0,0,1,470.696,137.944)">
                    <path d="M0,7.775C-2.323,7.775 -4.212,5.945 -4.212,3.888C-4.212,1.831 -2.323,0.001 0,0.001C2.322,0.001 4.212,1.831 4.212,3.888C4.212,5.945 2.322,7.775 0,7.775M0,-2.988C-4.057,-2.988 -7.358,0.096 -7.358,3.888C-7.358,7.679 -4.057,10.763 0,10.763C4.057,10.763 7.357,7.679 7.357,3.888C7.357,0.096 4.057,-2.988 0,-2.988" style="fill:rgb(90,145,225);fill-rule:nonzero;"/>
                </g>
                <g transform="matrix(1,0,0,1,463.174,134.979)">
                    <path d="M0,13.706C-0.182,13.581 -0.337,13.568 -0.658,13.229L-7.314,6.178C-7.375,6.113 -7.369,6.013 -7.302,5.956L-0.073,-0.109C0.036,-0.2 -0.028,-0.378 -0.171,-0.378L-4.521,-0.378C-4.558,-0.378 -4.594,-0.364 -4.622,-0.34L-11.45,5.715C-11.548,5.803 -11.704,5.732 -11.704,5.602L-11.704,-0.226C-11.704,-0.31 -11.772,-0.378 -11.856,-0.378L-14.542,-0.378C-14.625,-0.378 -14.693,-0.311 -14.694,-0.228L-14.848,13.93C-14.849,14.015 -14.78,14.084 -14.695,14.084L-11.856,14.084C-11.772,14.084 -11.704,14.016 -11.704,13.932L-11.704,9.721C-11.704,9.676 -11.684,9.633 -11.649,9.603L-9.619,7.9C-9.555,7.847 -9.46,7.853 -9.406,7.917L-4.071,14.032C-4.042,14.065 -4,14.084 -3.956,14.084L-0.173,14.084C0.143,14.084 0.161,13.816 0,13.706" style="fill:rgb(90,145,225);fill-rule:nonzero;"/>
                </g>
                <g transform="matrix(1,0,0,1,394.819,147.163)">
                    <path d="M0,-10.678C-0.432,-11.076 -0.89,-11.397 -1.363,-11.663C-2.31,-12.195 -3.312,-12.529 -4.33,-12.714C-5.347,-12.906 -6.392,-12.917 -7.361,-12.84C-8.352,-12.755 -9.37,-12.588 -10.408,-12.14C-10.924,-11.913 -11.449,-11.606 -11.924,-11.164C-12.395,-10.723 -12.8,-10.126 -13.003,-9.476C-13.214,-8.824 -13.241,-8.178 -13.171,-7.575C-13.104,-6.964 -12.882,-6.268 -12.44,-5.688C-12.006,-5.1 -11.4,-4.702 -10.838,-4.469C-10.269,-4.228 -9.722,-4.116 -9.201,-4.045C-8.159,-3.914 -7.201,-3.954 -6.271,-4.016C-5.428,-4.069 -4.599,-4.085 -3.875,-3.986C-3.516,-3.936 -3.185,-3.856 -2.936,-3.745C-2.681,-3.634 -2.523,-3.511 -2.429,-3.376C-2.335,-3.241 -2.265,-3.063 -2.239,-2.791C-2.212,-2.511 -2.239,-2.246 -2.31,-2.052C-2.378,-1.852 -2.494,-1.691 -2.671,-1.525C-2.854,-1.362 -3.106,-1.21 -3.408,-1.088C-4.013,-0.839 -4.777,-0.71 -5.556,-0.666C-6.361,-0.622 -7.11,-0.655 -7.841,-0.81C-8.571,-0.959 -9.272,-1.222 -9.87,-1.578C-10.169,-1.755 -10.437,-1.961 -10.653,-2.174C-10.815,-2.331 -10.943,-2.499 -11.021,-2.642C-11.06,-2.713 -11.145,-2.745 -11.219,-2.712L-13.72,-1.592C-13.799,-1.557 -13.834,-1.46 -13.794,-1.383C-13.492,-0.805 -13.11,-0.367 -12.714,0.003C-12.283,0.399 -11.824,0.718 -11.352,0.984C-10.407,1.514 -9.407,1.849 -8.39,2.034C-7.374,2.226 -6.33,2.239 -5.361,2.162C-4.371,2.077 -3.354,1.911 -2.317,1.464C-1.801,1.237 -1.278,0.929 -0.804,0.489C-0.333,0.049 0.071,-0.546 0.275,-1.196C0.485,-1.846 0.514,-2.49 0.444,-3.092C0.377,-3.703 0.157,-4.398 -0.284,-4.978C-0.718,-5.564 -1.321,-5.962 -1.882,-6.197C-2.451,-6.44 -2.997,-6.551 -3.518,-6.623C-4.559,-6.756 -5.518,-6.718 -6.448,-6.657C-7.292,-6.606 -8.122,-6.59 -8.847,-6.689C-9.205,-6.74 -9.536,-6.819 -9.785,-6.93C-10.04,-7.04 -10.195,-7.163 -10.289,-7.296C-10.382,-7.429 -10.451,-7.608 -10.476,-7.878C-10.503,-8.158 -10.476,-8.421 -10.405,-8.615C-10.336,-8.813 -10.221,-8.973 -10.044,-9.138C-9.863,-9.299 -9.611,-9.45 -9.31,-9.573C-8.707,-9.821 -7.943,-9.949 -7.165,-9.992C-6.36,-10.035 -5.612,-10.004 -4.882,-9.848C-4.154,-9.699 -3.454,-9.436 -2.857,-9.079C-2.56,-8.903 -2.292,-8.699 -2.076,-8.488C-1.912,-8.329 -1.784,-8.162 -1.703,-8.021C-1.663,-7.951 -1.579,-7.922 -1.506,-7.954L1,-9.077C1.079,-9.113 1.114,-9.208 1.075,-9.284C0.778,-9.866 0.396,-10.307 0,-10.678" style="fill:rgb(90,145,225);fill-rule:nonzero;"/>
                </g>
                <g transform="matrix(1,0,0,1,412.188,134.979)">
                    <path d="M0,13.706C-0.182,13.581 -0.495,13.608 -0.495,13.201C-0.495,13.192 -0.495,13.185 -0.496,13.178L-0.35,-0.224C-0.349,-0.309 -0.417,-0.378 -0.502,-0.378L-3.341,-0.378C-3.425,-0.378 -3.494,-0.31 -3.494,-0.226L-3.494,5.365C-3.494,5.449 -3.562,5.518 -3.646,5.518L-11.284,5.518C-11.368,5.518 -11.436,5.449 -11.436,5.365L-11.436,-0.226C-11.436,-0.31 -11.504,-0.378 -11.588,-0.378L-14.429,-0.378C-14.513,-0.378 -14.582,-0.31 -14.582,-0.226L-14.582,13.932C-14.582,14.016 -14.513,14.084 -14.429,14.084L-11.114,14.084C-10.797,14.084 -10.779,13.816 -10.94,13.706C-11.123,13.581 -11.436,13.608 -11.436,13.201L-11.436,8.341C-11.436,8.257 -11.368,8.188 -11.284,8.188L-3.646,8.188C-3.562,8.188 -3.494,8.257 -3.494,8.341L-3.494,13.932C-3.494,14.016 -3.425,14.084 -3.341,14.084L-0.173,14.084C0.144,14.084 0.161,13.816 0,13.706" style="fill:rgb(90,145,225);fill-rule:nonzero;"/>
                </g>
            </g>
            <g transform="matrix(1,0,0,1,341.377,83.0666)">
                <path d="M0,47.723C4.855,46.462 7.778,42.606 5.911,39.458C3.12,34.753 -5.688,38.057 -10.124,29.12C-15.124,19.048 -16.896,18.705 -16.648,17.503C-16.415,16.371 -13.743,17.099 -10.746,17.92C-8.171,18.627 -5.652,19.098 -3.566,19.434C-1.932,19.706 -0.466,19.859 0.896,19.352C2.495,18.851 3.895,17.81 5.6,16.435C7.587,14.83 8.366,13.666 6.557,10.765C4.884,8.082 1.917,6.052 2.832,3.012C3.682,0.185 2.896,-1.134 -2.437,-6.965C-7.77,-12.797 -9.605,-11.311 -9.51,-13.738C-9.415,-16.166 -9.606,-20.494 -13.597,-21.594C-17.523,-22.677 -18.237,-17.037 -19.176,-15.817C-19.94,-14.825 -24.207,-16.666 -29.506,-15.493C-33.632,-14.579 -39.677,-11.049 -45.966,-6.478C-52.408,-1.795 -59.645,4.438 -64.725,10.1C-69.836,15.796 -70.173,19.002 -70.173,28.564C-70.173,48.657 -55.311,65.532 -35.217,70.27C-34.668,70.4 -33.998,70.206 -33.796,69.679C-24.57,45.531 -30.024,37.41 -23.654,42.276C-12.936,50.464 -2.354,48.335 0,47.723" style="fill:rgb(114,177,252);fill-rule:nonzero;"/>
            </g>
            <g transform="matrix(1,0,0,1,311.93,100.47)">
                <path d="M0,54.007C-1.009,53.736 -1.263,53.298 -0.939,52.443C2.147,44.271 3.704,37.012 4.37,30.467C4.71,27.128 5.292,28.141 7.889,29.841C14.009,33.85 25.847,36.149 33.793,31.447C37.01,29.544 39.026,25.918 38.171,22.277C36.746,16.724 28.481,15.854 26.163,14.413C22.193,11.945 22.285,8.854 18.05,3.728C17.599,2.842 19.462,3.461 20.222,3.628C21.848,3.986 42.005,9.348 44.031,9.898C44.342,9.983 44.78,10.159 44.954,9.723C45.08,9.405 44.75,9.173 44.525,8.975C43.31,7.904 42.096,6.832 40.863,5.783C40.16,5.186 39.344,5.05 38.776,5.868C38.146,6.776 35.924,5.902 35.161,5.314C34.61,4.89 34.708,4.386 35.051,3.928C36.176,2.421 36.875,1.505 38.052,0.039C38.574,-0.611 39.217,-0.649 39.881,-0.064C43.069,2.746 46.361,5.44 49.295,8.531C50.025,9.301 50.194,10.02 49.775,11.015C45.733,20.625 33.998,49.35 32.18,52.905C31.53,54.175 30.467,54.309 28.984,54.284C24.464,54.366 2.413,54.656 0,54.007" style="fill:rgb(245,210,92);fill-rule:nonzero;"/>
            </g>
        </g>
    </g>
</svg>
