<?xml version="1.0" encoding="UTF-8" standalone="no"?>
<!DOCTYPE svg PUBLIC "-//W3C//DTD SVG 1.1//EN" "http://www.w3.org/Graphics/SVG/1.1/DTD/svg11.dtd">
<svg width="100%" height="100%" viewBox="0 0 150 145" version="1.1" xmlns="http://www.w3.org/2000/svg" xmlns:xlink="http://www.w3.org/1999/xlink" xml:space="preserve" xmlns:serif="http://www.serif.com/" style="fill-rule:evenodd;clip-rule:evenodd;stroke-linejoin:round;stroke-miterlimit:2;">
    <g transform="matrix(1,0,0,1,-352.5,-1289.92)">
        <g id="iStock-1137966885" transform="matrix(0.469768,0,0,0.469768,-132.157,1113.06)">
            <path d="M1122.33,684.932C1052.1,684.932 1002.67,596.111 1050.97,529.797C1064.04,511.849 1082.8,506.391 1088.17,482.731C1094.1,456.572 1076.54,436.547 1092.28,409.616C1105.18,387.541 1127.58,376.492 1150.44,376.492C1167.42,376.492 1184.64,382.582 1198.42,394.774C1211.61,406.456 1212.67,427.006 1225.45,438.206C1244.66,455.027 1262.3,445.12 1283.93,451.233C1322.07,462.018 1351,491.971 1351,533.527C1351,578.476 1317.6,609.822 1275.46,616.673C1272.09,617.222 1268.8,617.42 1265.58,617.42C1261.37,617.42 1257.28,617.081 1253.24,616.741C1249.2,616.402 1245.22,616.062 1241.26,616.062C1233.4,616.062 1225.58,617.392 1217.39,622.68C1198.98,634.567 1191.98,658.207 1171.86,670.278C1154.88,680.469 1138.09,684.932 1122.33,684.932ZM1150.72,425.59C1146.56,425.59 1142.68,426.077 1139.16,427.109C1094.4,440.238 1105,499.563 1096.24,538.591C1087.47,577.619 1068.23,604.741 1098.63,630.734C1108.63,639.285 1118.32,642.658 1128.17,642.658C1148.26,642.659 1169.02,628.628 1194.52,615.889C1232.52,596.905 1290.48,584.996 1288.96,536.953C1287.55,492.686 1199.57,425.59 1150.72,425.59Z" style="fill:url(#_Linear1);"/>
            <path d="M1128.17,642.658C1118.32,642.658 1108.63,639.285 1098.63,630.734C1068.23,604.741 1087.47,577.619 1096.24,538.591C1105,499.563 1094.4,440.238 1139.16,427.109C1142.68,426.077 1146.56,425.59 1150.72,425.59C1199.57,425.59 1287.55,492.686 1288.96,536.953C1290.48,584.996 1232.52,596.905 1194.52,615.889C1169.02,628.628 1148.26,642.659 1128.17,642.658Z" style="fill:url(#_Linear2);"/>
            <rect x="1094.25" y="443.969" width="182.62" height="132.338" style="fill:white;fill-rule:nonzero;"/>
            <path d="M1285.07,435.675C1285.07,434.162 1283.85,432.935 1282.33,432.935L1088.78,432.935C1087.27,432.935 1086.04,434.162 1086.04,435.675L1086.04,441.229C1086.04,442.742 1087.27,443.969 1088.78,443.969L1282.33,443.969C1283.85,443.969 1285.07,442.742 1285.07,441.229L1285.07,435.675Z" style="fill:rgb(62,56,103);fill-rule:nonzero;"/>
            <path d="M1189.31,609.512L1189.31,587.342L1181.81,587.342L1181.81,609.512C1180.03,610.715 1178.87,612.748 1178.87,615.053C1178.87,618.748 1181.86,621.745 1185.56,621.745C1189.25,621.745 1192.25,618.748 1192.25,615.053C1192.25,612.748 1191.08,610.715 1189.31,609.512Z" style="fill:rgb(26,20,57);fill-rule:nonzero;"/>
            <path d="M1285.07,579.048C1285.07,577.535 1283.85,576.308 1282.33,576.308L1088.79,576.308C1087.27,576.308 1086.05,577.535 1086.05,579.048L1086.05,584.601C1086.05,586.115 1087.27,587.342 1088.79,587.342L1282.33,587.342C1283.85,587.342 1285.07,586.115 1285.07,584.601L1285.07,579.048Z" style="fill:rgb(62,56,103);fill-rule:nonzero;"/>
            <path d="M1141.79,612.422C1139.67,612.012 1137.39,612.626 1135.76,614.264C1133.13,616.885 1133.13,621.137 1135.76,623.759C1138.38,626.379 1142.63,626.379 1145.25,623.759C1146.89,622.119 1147.5,619.843 1147.09,617.726L1171.38,593.44L1160.77,593.44L1141.79,612.422Z" style="fill:rgb(62,56,103);fill-rule:nonzero;"/>
            <path d="M1166.87,587.342L1160.77,593.44L1171.38,593.44L1177.48,587.342L1166.87,587.342Z" style="fill:rgb(26,20,57);fill-rule:nonzero;"/>
            <path d="M1232.82,614.299C1231.2,612.68 1228.95,612.069 1226.86,612.463L1207.84,593.44L1197.23,593.44L1221.56,617.769C1221.16,619.861 1221.77,622.106 1223.39,623.725C1225.99,626.327 1230.21,626.327 1232.82,623.725C1235.42,621.121 1235.42,616.9 1232.82,614.299Z" style="fill:rgb(62,56,103);fill-rule:nonzero;"/>
            <path d="M1201.74,587.342L1191.13,587.342L1197.23,593.44L1207.84,593.44L1201.74,587.342Z" style="fill:rgb(26,20,57);fill-rule:nonzero;"/>
            <path d="M1136.31,620.034C1135.72,620.034 1135.24,619.554 1135.24,618.962C1135.24,616.063 1137.6,613.705 1140.5,613.705C1141.09,613.705 1141.57,614.185 1141.57,614.776C1141.57,615.368 1141.09,615.848 1140.5,615.848C1138.78,615.848 1137.38,617.246 1137.38,618.962C1137.38,619.554 1136.91,620.034 1136.31,620.034Z" style="fill:rgb(87,81,128);fill-rule:nonzero;"/>
            <path d="M1223.96,620.034C1223.37,620.034 1222.89,619.554 1222.89,618.962C1222.89,616.063 1225.25,613.705 1228.15,613.705C1228.74,613.705 1229.22,614.185 1229.22,614.776C1229.22,615.368 1228.74,615.848 1228.15,615.848C1226.43,615.848 1225.03,617.246 1225.03,618.962C1225.03,619.554 1224.55,620.034 1223.96,620.034Z" style="fill:rgb(87,81,128);fill-rule:nonzero;"/>
            <path d="M1181.49,616.167C1180.9,616.167 1180.42,615.687 1180.42,615.095C1180.42,612.196 1182.78,609.837 1185.67,609.837C1186.27,609.837 1186.75,610.317 1186.75,610.909C1186.75,611.501 1186.27,611.981 1185.67,611.981C1183.96,611.981 1182.56,613.378 1182.56,615.095C1182.56,615.687 1182.08,616.167 1181.49,616.167Z" style="fill:rgb(62,56,103);fill-rule:nonzero;"/>
            <path d="M1243.76,496.534C1243.76,494.88 1242.42,493.54 1240.77,493.54L1188.52,493.54C1187.84,493.54 1187.3,492.995 1187.3,492.322L1187.3,485.299L1183.65,485.299L1183.65,492.322C1183.65,492.995 1183.1,493.54 1182.43,493.54L1130.34,493.54C1128.69,493.54 1127.35,494.88 1127.35,496.534L1127.35,506.644L1131,506.644L1131,498.409C1131,497.736 1131.55,497.191 1132.22,497.191L1182.43,497.191C1183.1,497.191 1183.65,497.736 1183.65,498.408L1183.65,506.644L1187.3,506.644L1187.3,498.408C1187.3,497.736 1187.84,497.191 1188.52,497.191L1238.9,497.191C1239.57,497.191 1240.11,497.736 1240.11,498.409L1240.11,506.644L1243.76,506.644L1243.76,496.534Z" style="fill:rgb(110,96,128);fill-rule:nonzero;"/>
            <path d="M1201.7,469.49C1201.7,478.408 1194.48,485.637 1185.56,485.637C1176.64,485.637 1169.41,478.408 1169.41,469.49C1169.41,460.572 1176.64,453.342 1185.56,453.342C1194.48,453.342 1201.7,460.572 1201.7,469.49Z" style="fill:rgb(240,83,136);fill-rule:nonzero;"/>
            <path d="M1207,517.563C1207,519.216 1205.66,520.557 1204.01,520.557L1167.11,520.557C1165.46,520.557 1164.12,519.216 1164.12,517.563L1164.12,508.42C1164.12,506.767 1165.46,505.427 1167.11,505.427L1204.01,505.427C1205.66,505.427 1207,506.767 1207,508.42L1207,517.563Z" style="fill:rgb(197,233,180);fill-rule:nonzero;"/>
            <path d="M1263.38,517.563C1263.38,519.216 1262.04,520.557 1260.39,520.557L1223.49,520.557C1221.84,520.557 1220.5,519.216 1220.5,517.563L1220.5,508.42C1220.5,506.767 1221.84,505.427 1223.49,505.427L1260.39,505.427C1262.04,505.427 1263.38,506.767 1263.38,508.42L1263.38,517.563Z" style="fill:rgb(245,193,10);fill-rule:nonzero;"/>
            <path d="M1263.38,539.129C1263.38,540.782 1262.04,542.123 1260.39,542.123L1223.49,542.123C1221.84,542.123 1220.5,540.782 1220.5,539.129L1220.5,529.986C1220.5,528.333 1221.84,526.993 1223.49,526.993L1260.39,526.993C1262.04,526.993 1263.38,528.333 1263.38,529.986L1263.38,539.129Z" style="fill:rgb(245,193,10);fill-rule:nonzero;"/>
            <path d="M1150.62,517.563C1150.62,519.216 1149.28,520.557 1147.62,520.557L1110.73,520.557C1109.07,520.557 1107.73,519.216 1107.73,517.563L1107.73,508.42C1107.73,506.767 1109.07,505.427 1110.73,505.427L1147.62,505.427C1149.28,505.427 1150.62,506.767 1150.62,508.42L1150.62,517.563Z" style="fill:rgb(147,214,249);fill-rule:nonzero;"/>
            <path d="M1150.62,539.129C1150.62,540.782 1149.28,542.123 1147.62,542.123L1110.73,542.123C1109.07,542.123 1107.73,540.782 1107.73,539.129L1107.73,529.986C1107.73,528.333 1109.07,526.993 1110.73,526.993L1147.62,526.993C1149.28,526.993 1150.62,528.333 1150.62,529.986L1150.62,539.129Z" style="fill:rgb(147,214,249);fill-rule:nonzero;"/>
            <path d="M1150.62,560.695C1150.62,562.348 1149.28,563.688 1147.62,563.688L1110.73,563.688C1109.07,563.688 1107.73,562.348 1107.73,560.695L1107.73,551.551C1107.73,549.898 1109.07,548.559 1110.73,548.559L1147.62,548.559C1149.28,548.559 1150.62,549.898 1150.62,551.551L1150.62,560.695Z" style="fill:rgb(147,214,249);fill-rule:nonzero;"/>
        </g>
    </g>
    <defs>
        <linearGradient id="_Linear1" x1="0" y1="0" x2="1" y2="0" gradientUnits="userSpaceOnUse" gradientTransform="matrix(319.31,0,0,319.31,1031.69,530.712)"><stop offset="0" style="stop-color:rgb(255,214,114);stop-opacity:1"/><stop offset="1" style="stop-color:rgb(255,198,80);stop-opacity:1"/></linearGradient>
        <linearGradient id="_Linear2" x1="0" y1="0" x2="1" y2="0" gradientUnits="userSpaceOnUse" gradientTransform="matrix(319.31,0,0,319.31,1031.69,530.712)"><stop offset="0" style="stop-color:rgb(255,181,52);stop-opacity:1"/><stop offset="1" style="stop-color:rgb(255,168,36);stop-opacity:1"/></linearGradient>
    </defs>
</svg>
