<?xml version="1.0" encoding="UTF-8" standalone="no"?>
<!DOCTYPE svg PUBLIC "-//W3C//DTD SVG 1.1//EN" "http://www.w3.org/Graphics/SVG/1.1/DTD/svg11.dtd">
<svg width="100%" height="100%" viewBox="0 0 140 149" version="1.1" xmlns="http://www.w3.org/2000/svg" xmlns:xlink="http://www.w3.org/1999/xlink" xml:space="preserve" xmlns:serif="http://www.serif.com/" style="fill-rule:evenodd;clip-rule:evenodd;stroke-linejoin:round;stroke-miterlimit:2;">
    <g transform="matrix(1,0,0,1,-1422.5,-1285.39)">
        <g transform="matrix(0.483872,0,0,0.483872,1076.38,784.051)">
            <path d="M853.2,1343.8C823.811,1343.8 794.892,1329.51 777.886,1304.29C754.324,1269.36 776.386,1236.97 765.196,1202.53C752.035,1162.02 704.766,1151.59 717.462,1097.69C726.045,1061.24 759.736,1036.09 795.939,1036.09C801.366,1036.09 806.854,1036.66 812.318,1037.83C833.748,1042.45 843.097,1060.01 861.609,1066.95C870.008,1070.1 876.302,1071.28 881.839,1071.28C893.521,1071.28 901.824,1066.03 919.354,1063C924.158,1062.16 928.964,1061.76 933.721,1061.76C970.869,1061.76 1004.65,1086.63 1004.65,1128.35C1004.65,1181.25 946.66,1186.28 940.597,1235.4C935.173,1279.33 935.553,1316.61 887.548,1336.9C876.495,1341.57 864.811,1343.8 853.2,1343.8ZM890.071,1082.32C886.69,1082.32 883.279,1082.48 879.85,1082.8C842.61,1086.31 778.553,1113.41 772.41,1166.15C766.337,1218.29 834.918,1297.13 876.668,1297.14C877.155,1297.14 877.633,1297.13 878.112,1297.11C919.703,1295.24 922.399,1238.85 937.363,1208.48C952.328,1178.11 977.906,1157.72 965.151,1126.35C953.571,1097.88 923.398,1082.32 890.071,1082.32Z" style="fill:url(#_Linear1);"/>
            <path d="M876.668,1297.14C834.918,1297.13 766.337,1218.29 772.41,1166.15C778.553,1113.41 842.61,1086.31 879.85,1082.8C883.279,1082.48 886.69,1082.32 890.071,1082.32C923.398,1082.32 953.571,1097.88 965.151,1126.35C977.906,1157.72 952.328,1178.11 937.363,1208.48C922.399,1238.85 919.703,1295.24 878.112,1297.11C877.633,1297.13 877.155,1297.14 876.668,1297.14Z" style="fill:url(#_Linear2);"/>
            <path d="M922.229,1136.29C909.573,1103.45 881.559,1078.17 844.855,1078.17C800.36,1078.17 764.288,1114.24 764.288,1158.74C764.288,1193.43 816.963,1245.1 816.963,1268.54L816.963,1281.42C816.963,1284.27 819.271,1286.57 822.119,1286.57L882.224,1286.57C885.071,1286.57 887.38,1284.27 887.38,1281.42L887.38,1255.43C887.38,1252.58 889.688,1250.27 892.536,1250.27L917.84,1250.27C920.688,1250.27 922.995,1247.96 922.995,1245.12L922.995,1195.1C922.995,1192.25 925.304,1189.94 928.151,1189.94L940.271,1189.94C941.157,1189.94 941.986,1189.5 942.48,1188.76C942.975,1188.03 943.069,1187.09 942.732,1186.27L922.229,1136.29Z" style="fill:white;fill-rule:nonzero;"/>
            <path d="M875.159,1152.66C875.159,1134.43 860.386,1119.66 842.163,1119.66C823.938,1119.66 809.167,1134.43 809.167,1152.66C809.167,1164.15 816.898,1174.63 824.583,1182.93C827.788,1186.39 829.57,1190.93 829.57,1195.65L829.57,1196.21L853.647,1196.21C853.647,1191.34 855.545,1186.66 858.939,1183.16C868.065,1173.76 875.159,1164.84 875.159,1152.66Z" style="fill:url(#_Linear3);"/>
            <path d="M853.647,1200.06C853.647,1200.82 853.03,1201.44 852.27,1201.44L830.947,1201.44C830.187,1201.44 829.57,1200.82 829.57,1200.06L829.57,1196.21L853.647,1196.21L853.647,1200.06Z" style="fill:rgb(62,56,103);fill-rule:nonzero;"/>
            <path d="M853.647,1206.94C853.647,1207.71 853.03,1208.32 852.27,1208.32L830.947,1208.32C830.187,1208.32 829.57,1207.71 829.57,1206.94L829.57,1204.47C829.57,1203.71 830.187,1203.1 830.947,1203.1L852.27,1203.1C853.03,1203.1 853.647,1203.71 853.647,1204.47L853.647,1206.94Z" style="fill:rgb(26,20,57);fill-rule:nonzero;"/>
            <path d="M848.488,1214.83C848.233,1215.07 847.896,1215.21 847.545,1215.21L835.672,1215.21C835.321,1215.21 834.984,1215.07 834.729,1214.83L832.102,1212.36C831.69,1211.98 831.557,1211.38 831.765,1210.85C831.974,1210.33 832.48,1209.98 833.046,1209.98L850.171,1209.98C850.736,1209.98 851.243,1210.33 851.452,1210.85C851.66,1211.38 851.526,1211.98 851.115,1212.36L848.488,1214.83Z" style="fill:rgb(62,56,103);fill-rule:nonzero;"/>
            <path d="M839.071,1190.41C839.071,1191.13 838.488,1191.71 837.768,1191.71L836.694,1191.71C835.975,1191.71 835.391,1191.13 835.391,1190.41L835.391,1176.95C835.391,1176.79 835.362,1176.64 835.307,1176.49L824.354,1147.42C824.102,1146.75 824.441,1145.99 825.115,1145.74L826.12,1145.36C826.443,1145.24 826.802,1145.25 827.117,1145.39C827.432,1145.54 827.677,1145.8 827.799,1146.12L838.988,1175.82C839.043,1175.97 839.071,1176.12 839.071,1176.28L839.071,1190.41Z" style="fill:rgb(235,148,10);fill-rule:nonzero;"/>
            <path d="M848.935,1190.41C848.935,1191.13 848.352,1191.71 847.632,1191.71L846.558,1191.71C845.838,1191.71 845.254,1191.13 845.254,1190.41L845.254,1176.28C845.254,1176.12 845.282,1175.97 845.338,1175.82L856.526,1146.12C856.647,1145.8 856.894,1145.54 857.208,1145.39C857.523,1145.25 857.882,1145.24 858.205,1145.36L859.21,1145.74C859.884,1146 860.224,1146.75 859.97,1147.42L849.019,1176.49C848.963,1176.64 848.935,1176.79 848.935,1176.95L848.935,1190.41Z" style="fill:rgb(235,148,10);fill-rule:nonzero;"/>
            <path d="M838.499,1149.35C838.046,1149.88 837.25,1149.96 836.698,1149.53L831.507,1145.45C830.941,1145 830.843,1144.19 831.288,1143.62L831.951,1142.78C832.165,1142.5 832.479,1142.33 832.821,1142.29C833.165,1142.25 833.51,1142.34 833.782,1142.56L836.184,1144.44C836.735,1144.88 837.53,1144.8 837.984,1144.26L841.864,1139.68C842.122,1139.38 842.504,1139.21 842.901,1139.22C843.299,1139.23 843.669,1139.43 843.906,1139.75L846.854,1143.72C847.085,1144.04 847.442,1144.23 847.83,1144.25C848.217,1144.27 848.594,1144.12 848.857,1143.83L850.311,1142.27C850.8,1141.74 851.625,1141.71 852.152,1142.2L852.939,1142.93C853.468,1143.42 853.498,1144.24 853.009,1144.77L848.541,1149.59C848.277,1149.87 847.9,1150.03 847.514,1150C847.127,1149.98 846.769,1149.79 846.538,1149.48L843.714,1145.67C843.477,1145.35 843.106,1145.16 842.708,1145.14C842.311,1145.13 841.929,1145.3 841.672,1145.6L838.499,1149.35Z" style="fill:rgb(224,115,9);fill-rule:nonzero;"/>
            <path d="M806.166,1136.79C806.275,1136.54 806.277,1136.24 806.171,1135.98C806.063,1135.72 805.857,1135.52 805.597,1135.41L797.38,1132.02C796.308,1131.58 795.083,1132.09 794.641,1133.16C794.199,1134.23 794.71,1135.46 795.781,1135.9L804.028,1139.3C804.294,1139.41 804.593,1139.41 804.855,1139.29C805.118,1139.17 805.322,1138.96 805.421,1138.69C805.653,1138.05 805.901,1137.42 806.166,1136.79Z" style="fill:rgb(245,193,10);fill-rule:nonzero;"/>
            <path d="M811.811,1125.69C812.014,1125.89 812.292,1126 812.579,1126C812.867,1125.99 813.14,1125.87 813.334,1125.66C813.792,1125.16 814.262,1124.67 814.745,1124.19C814.945,1124 815.058,1123.73 815.059,1123.45C815.061,1123.17 814.949,1122.9 814.751,1122.7L808.653,1116.6C807.834,1115.78 806.506,1115.78 805.688,1116.6C804.867,1117.42 804.867,1118.75 805.688,1119.57L811.811,1125.69Z" style="fill:rgb(245,193,10);fill-rule:nonzero;"/>
            <path d="M824.171,1116.09C824.282,1116.36 824.496,1116.57 824.765,1116.67C825.033,1116.78 825.333,1116.77 825.594,1116.64C826.205,1116.36 826.825,1116.08 827.454,1115.83C827.715,1115.72 827.922,1115.52 828.029,1115.26C828.138,1115 828.138,1114.71 828.03,1114.45L824.827,1106.75C824.382,1105.68 823.153,1105.18 822.084,1105.62C821.015,1106.07 820.509,1107.29 820.953,1108.36L824.171,1116.09Z" style="fill:rgb(245,193,10);fill-rule:nonzero;"/>
            <path d="M842.15,1112.96C842.311,1112.96 842.47,1112.96 842.629,1112.97C842.912,1112.97 843.186,1112.86 843.388,1112.67C843.59,1112.47 843.704,1112.2 843.704,1111.91L843.704,1103.82C843.704,1102.66 842.765,1101.72 841.605,1101.72C840.447,1101.72 839.508,1102.66 839.508,1103.82L839.508,1111.94C839.508,1112.23 839.626,1112.51 839.834,1112.71C840.041,1112.91 840.321,1113.01 840.609,1113C841.12,1112.98 841.634,1112.96 842.15,1112.96Z" style="fill:rgb(245,193,10);fill-rule:nonzero;"/>
            <path d="M857.691,1116.18C857.951,1116.3 858.245,1116.3 858.507,1116.19C858.77,1116.09 858.978,1115.88 859.085,1115.62L862.104,1108.29C862.546,1107.22 862.035,1106 860.965,1105.55C859.894,1105.11 858.667,1105.62 858.226,1106.69L855.199,1114.04C855.091,1114.3 855.094,1114.6 855.208,1114.86C855.322,1115.12 855.538,1115.33 855.806,1115.43C856.442,1115.66 857.071,1115.92 857.691,1116.18Z" style="fill:rgb(245,193,10);fill-rule:nonzero;"/>
            <path d="M870.461,1125.11C870.657,1125.31 870.928,1125.43 871.212,1125.43C871.496,1125.44 871.769,1125.32 871.97,1125.12L877.527,1119.57C878.347,1118.75 878.347,1117.42 877.527,1116.6C876.708,1115.78 875.379,1115.78 874.561,1116.6L869,1122.16C868.799,1122.36 868.688,1122.63 868.691,1122.92C868.695,1123.2 868.813,1123.47 869.021,1123.67C869.513,1124.14 869.993,1124.61 870.461,1125.11Z" style="fill:rgb(245,193,10);fill-rule:nonzero;"/>
            <path d="M888.504,1133C888.06,1131.93 886.831,1131.42 885.762,1131.87L878.484,1134.9C878.223,1135.01 878.017,1135.21 877.911,1135.48C877.806,1135.74 877.81,1136.03 877.924,1136.29C878.195,1136.91 878.451,1137.54 878.691,1138.18C878.793,1138.44 878.998,1138.66 879.261,1138.77C879.522,1138.88 879.819,1138.89 880.083,1138.78L887.373,1135.74C888.443,1135.3 888.949,1134.07 888.504,1133Z" style="fill:rgb(245,193,10);fill-rule:nonzero;"/>
        </g>
    </g>
    <defs>
        <linearGradient id="_Linear1" x1="0" y1="0" x2="1" y2="0" gradientUnits="userSpaceOnUse" gradientTransform="matrix(289.333,0,0,289.333,715.318,1189.94)"><stop offset="0" style="stop-color:rgb(255,214,114);stop-opacity:1"/><stop offset="1" style="stop-color:rgb(255,198,80);stop-opacity:1"/></linearGradient>
        <linearGradient id="_Linear2" x1="0" y1="0" x2="1" y2="0" gradientUnits="userSpaceOnUse" gradientTransform="matrix(289.333,0,0,289.333,715.318,1189.94)"><stop offset="0" style="stop-color:rgb(255,181,52);stop-opacity:1"/><stop offset="1" style="stop-color:rgb(255,168,36);stop-opacity:1"/></linearGradient>
        <linearGradient id="_Linear3" x1="0" y1="0" x2="1" y2="0" gradientUnits="userSpaceOnUse" gradientTransform="matrix(-50.8522,-50.8522,50.8522,-50.8522,867.312,1182.55)"><stop offset="0" style="stop-color:rgb(244,193,10);stop-opacity:1"/><stop offset="1" style="stop-color:rgb(246,230,66);stop-opacity:1"/></linearGradient>
    </defs>
</svg>
