<?xml version="1.0" encoding="UTF-8" standalone="no"?>
<!DOCTYPE svg PUBLIC "-//W3C//DTD SVG 1.1//EN" "http://www.w3.org/Graphics/SVG/1.1/DTD/svg11.dtd">
<svg width="100%" height="100%" viewBox="0 0 140 149" version="1.1" xmlns="http://www.w3.org/2000/svg" xmlns:xlink="http://www.w3.org/1999/xlink" xml:space="preserve" xmlns:serif="http://www.serif.com/" style="fill-rule:evenodd;clip-rule:evenodd;stroke-linejoin:round;stroke-miterlimit:2;">
    <g transform="matrix(1,0,0,1,-1058.5,-1285.39)">
        <g transform="matrix(0.483872,0,0,0.483872,857.378,784.051)">
            <g transform="matrix(2.06666,0,0,2.06666,-2075.71,-1620.37)">
                <path d="M1278.78,1285.39C1293,1285.39 1307,1292.3 1315.23,1304.5C1326.63,1321.4 1315.95,1337.08 1321.37,1353.74C1327.73,1373.34 1350.61,1378.39 1344.46,1404.47C1340.31,1422.11 1324.01,1434.28 1306.49,1434.28C1303.86,1434.28 1301.21,1434 1298.56,1433.44C1288.19,1431.2 1283.67,1422.7 1274.71,1419.35C1270.65,1417.82 1267.6,1417.25 1264.92,1417.25C1259.27,1417.25 1255.26,1419.79 1246.77,1421.26C1244.45,1421.66 1242.12,1421.86 1239.82,1421.86C1221.85,1421.86 1205.5,1409.82 1205.5,1389.64C1205.5,1364.04 1233.56,1361.61 1236.49,1337.84C1239.12,1316.58 1238.93,1298.54 1262.16,1288.73C1267.51,1286.46 1273.16,1285.39 1278.78,1285.39Z" style="fill:url(#_Linear1);"/>
            </g>
            <g transform="matrix(-0.798457,0.602052,0.602052,0.798457,552.924,-254.832)">
                <path d="M876.668,1297.14C834.918,1297.13 792.739,1198.38 798.812,1146.24C804.955,1093.5 869.662,1097.5 873.043,1097.5C906.37,1097.5 970.349,1121.56 988.583,1165.72C1001.51,1197.02 943.419,1195.18 928.454,1225.55C913.49,1255.92 919.703,1295.24 878.112,1297.11C877.633,1297.13 877.155,1297.14 876.668,1297.14Z" style="fill:url(#_Linear2);"/>
            </g>
            <g transform="matrix(2.06666,0,0,2.06666,-1776.04,-1620.37)">
                <path d="M1132,1297C1132,1297 1099.8,1316.12 1113,1383L1097,1399L1097,1415L1113,1404C1113,1404 1119.55,1400.12 1120,1406L1121,1411L1132,1411L1132,1297Z" style="fill:white;"/>
                <clipPath id="_clip3">
                    <path d="M1132,1297C1132,1297 1099.8,1316.12 1113,1383L1097,1399L1097,1415L1113,1404C1113,1404 1119.55,1400.12 1120,1406L1121,1411L1132,1411L1132,1297Z"/>
                </clipPath>
                <g clip-path="url(#_clip3)">
                    <rect x="1115" y="1297" width="17" height="23" style="fill:rgb(239,83,136);"/>
                    <g transform="matrix(1,0,0,0.26087,0,1066.65)">
                        <rect x="1115" y="1297" width="17" height="23" style="fill:rgb(239,83,136);"/>
                    </g>
                </g>
            </g>
            <g transform="matrix(-2.06666,0,0,2.06666,2902.88,-1620.37)">
                <path d="M1132,1297C1132,1297 1099.8,1316.12 1113,1383L1097,1399L1097,1415L1113,1404C1113,1404 1119.55,1400.12 1120,1406L1121,1411L1132,1411L1132,1297Z" style="fill:rgb(245,244,250);"/>
                <clipPath id="_clip4">
                    <path d="M1132,1297C1132,1297 1099.8,1316.12 1113,1383L1097,1399L1097,1415L1113,1404C1113,1404 1119.55,1400.12 1120,1406L1121,1411L1132,1411L1132,1297Z"/>
                </clipPath>
                <g clip-path="url(#_clip4)">
                    <g transform="matrix(-1,0,0,1,2247,0)">
                        <rect x="1115" y="1297" width="17" height="23" style="fill:rgb(180,23,128);"/>
                    </g>
                    <g transform="matrix(-1,0,0,0.26087,2247,1066.65)">
                        <rect x="1115" y="1297" width="17" height="23" style="fill:rgb(180,23,128);"/>
                    </g>
                </g>
            </g>
            <g transform="matrix(3.40391,0,0,3.40391,-3294.06,-3446.55)">
                <circle cx="1133.25" cy="1364.08" r="4.25" style="fill:rgb(65,62,102);"/>
            </g>
            <g transform="matrix(2.43137,0,0,2.43137,-2191.93,-2119.92)">
                <circle cx="1133.25" cy="1364.08" r="4.25" style="fill:rgb(148,214,249);"/>
            </g>
            <g transform="matrix(4.86273,0,0,4.86273,-4947.27,-5481.97)">
                <circle cx="1133.25" cy="1364.08" r="4.25" style="fill:rgb(65,62,102);"/>
            </g>
            <g transform="matrix(3.89018,0,0,3.89018,-3845.13,-4155.34)">
                <circle cx="1133.25" cy="1364.08" r="4.25" style="fill:rgb(148,214,249);"/>
            </g>
        </g>
    </g>
    <defs>
        <linearGradient id="_Linear1" x1="0" y1="0" x2="1" y2="0" gradientUnits="userSpaceOnUse" gradientTransform="matrix(100.5,100.5,-100.5,100.5,1245,1303)"><stop offset="0" style="stop-color:rgb(102,174,250);stop-opacity:1"/><stop offset="1" style="stop-color:rgb(78,154,248);stop-opacity:1"/></linearGradient>
        <linearGradient id="_Linear2" x1="0" y1="0" x2="1" y2="0" gradientUnits="userSpaceOnUse" gradientTransform="matrix(289.333,0,0,289.333,715.318,1189.94)"><stop offset="0" style="stop-color:rgb(35,112,242);stop-opacity:1"/><stop offset="1" style="stop-color:rgb(44,123,244);stop-opacity:1"/></linearGradient>
    </defs>
</svg>
