<?xml version="1.0" encoding="UTF-8" standalone="no"?>
<!DOCTYPE svg PUBLIC "-//W3C//DTD SVG 1.1//EN" "http://www.w3.org/Graphics/SVG/1.1/DTD/svg11.dtd">
<svg width="100%" height="100%" viewBox="0 0 130 150" version="1.1" xmlns="http://www.w3.org/2000/svg" xmlns:xlink="http://www.w3.org/1999/xlink" xml:space="preserve" xmlns:serif="http://www.serif.com/" style="fill-rule:evenodd;clip-rule:evenodd;stroke-linejoin:round;stroke-miterlimit:2;">
    <g transform="matrix(1,0,0,1,-715,-1285)">
        <g transform="matrix(0.45826,0,0,0.45826,385.895,1116.92)">
            <path d="M836.807,693.377C834.93,693.377 832.991,693.326 831.005,693.223C790.591,691.122 758.106,658.078 755.766,617.946C753.489,578.863 777.099,565.891 755.305,529.555C731.33,489.584 701.452,463.353 729.519,412.978C745.617,384.082 776.719,366.785 808.816,366.785C817.618,366.785 826.497,368.086 835.159,370.806C874.45,383.144 887.7,443.706 926.963,443.701C927.716,443.701 928.482,443.679 929.254,443.633C930.579,443.556 931.893,443.517 933.201,443.517C976.734,443.517 1010.26,486.007 999.974,528.439C988.017,577.769 932.837,572.72 915.085,616.919C899.313,656.19 887.675,693.382 836.807,693.377ZM833.889,434.899C825.192,434.899 817.194,436.265 810.312,439.301C761.817,460.699 775.12,519.496 782.312,564.16C789.505,608.824 805.266,663.565 842.335,665.091C842.919,665.115 843.496,665.127 844.059,665.127C879.232,665.131 873.925,618.851 896.875,592.209C920.193,565.14 977.043,556.548 970.15,517.996C964.237,484.915 886.476,434.899 833.889,434.899Z" style="fill:url(#_Linear1);"/>
            <path d="M992.543,630.944C992.543,647.003 979.525,660.022 963.466,660.022C947.407,660.022 934.389,647.003 934.389,630.944C934.389,614.885 947.407,601.867 963.466,601.867C979.525,601.867 992.543,614.885 992.543,630.944Z" style="fill:url(#_Linear2);"/>
            <path d="M844.059,665.127C843.496,665.127 842.919,665.115 842.335,665.091C805.266,663.565 789.505,608.824 782.312,564.16C775.12,519.496 761.817,460.699 810.312,439.301C817.194,436.265 825.192,434.899 833.889,434.899C886.476,434.899 964.237,484.915 970.15,517.996C977.043,556.548 920.193,565.14 896.875,592.209C873.925,618.851 879.232,665.131 844.059,665.127Z" style="fill:url(#_Linear3);"/>
            <path d="M947.995,521.261C947.995,570.043 908.449,609.588 859.668,609.588C810.886,609.588 771.341,570.043 771.341,521.261C771.341,472.48 810.886,432.935 859.668,432.935C908.449,432.935 947.995,472.48 947.995,521.261Z" style="fill:white;fill-rule:nonzero;"/>
            <path d="M931.517,521.261C931.517,560.943 899.349,593.111 859.668,593.111C819.986,593.111 787.818,560.943 787.818,521.261C787.818,481.58 819.986,449.413 859.668,449.413C899.349,449.413 931.517,481.58 931.517,521.261Z" style="fill:rgb(240,83,136);fill-rule:nonzero;"/>
            <path d="M915.811,521.261C915.811,552.269 890.674,577.404 859.668,577.404C828.661,577.404 803.525,552.269 803.525,521.261C803.525,490.255 828.661,465.119 859.668,465.119C890.674,465.119 915.811,490.255 915.811,521.261Z" style="fill:white;fill-rule:nonzero;"/>
            <path d="M900.976,521.261C900.976,544.076 882.481,562.57 859.668,562.57C836.854,562.57 818.359,544.076 818.359,521.261C818.359,498.447 836.854,479.954 859.668,479.954C882.481,479.954 900.976,498.447 900.976,521.261Z" style="fill:rgb(240,83,136);fill-rule:nonzero;"/>
            <path d="M884.893,521.261C884.893,535.193 873.6,546.486 859.668,546.486C845.735,546.486 834.443,535.193 834.443,521.261C834.443,507.33 845.735,496.037 859.668,496.037C873.6,496.037 884.893,507.33 884.893,521.261Z" style="fill:white;fill-rule:nonzero;"/>
            <path d="M870.258,521.262C870.258,527.11 865.516,531.852 859.668,531.852C853.819,531.852 849.078,527.11 849.078,521.262C849.078,515.413 853.819,510.672 859.668,510.672C865.516,510.672 870.258,515.413 870.258,521.262Z" style="fill:rgb(240,83,136);fill-rule:nonzero;"/>
            <path d="M924.9,580.807L913.229,569.136C911.751,570.789 910.195,572.37 908.572,573.879L920.224,585.531C921.837,584.01 923.405,582.443 924.9,580.807Z" style="fill:rgb(198,194,216);fill-rule:nonzero;"/>
            <path d="M897.466,562.772L908.572,573.879C910.195,572.37 911.751,570.789 913.229,569.136L902.098,558.004C900.645,559.68 899.104,561.279 897.466,562.772Z" style="fill:rgb(124,13,96);fill-rule:nonzero;"/>
            <path d="M902.098,558.004L891.582,547.489C890.171,549.203 888.62,550.795 886.954,552.262L897.466,562.772C899.104,561.279 900.645,559.68 902.098,558.004Z" style="fill:rgb(198,194,216);fill-rule:nonzero;"/>
            <path d="M875.549,540.855L886.954,552.262C888.62,550.795 890.171,549.203 891.582,547.489L880.117,536.023C878.812,537.828 877.275,539.454 875.549,540.855Z" style="fill:rgb(124,13,96);fill-rule:nonzero;"/>
            <path d="M880.117,536.023L869.438,525.346C868.557,527.455 867.006,529.209 865.058,530.365L875.549,540.855C877.275,539.454 878.812,537.828 880.117,536.023Z" style="fill:rgb(198,194,216);fill-rule:nonzero;"/>
            <path d="M857.829,518.437C857.182,519.086 856.856,519.936 856.856,520.786C856.856,521.637 857.182,522.487 857.829,523.137L865.058,530.365C867.006,529.209 868.557,527.455 869.438,525.346L862.529,518.437C861.232,517.139 859.128,517.139 857.829,518.437Z" style="fill:rgb(124,13,96);fill-rule:nonzero;"/>
            <path d="M955.707,445.832L938.767,442.658L938.769,442.655L935.593,425.706L920.829,440.47L923.192,453.087L857.829,518.45C856.532,519.748 856.532,521.852 857.829,523.15C858.479,523.798 859.329,524.123 860.18,524.123C861.03,524.123 861.881,523.798 862.529,523.15L927.587,458.093L940.944,460.596L955.707,445.832Z" style="fill:rgb(62,56,103);fill-rule:nonzero;"/>
        </g>
    </g>
    <defs>
        <linearGradient id="_Linear1" x1="0" y1="0" x2="1" y2="0" gradientUnits="userSpaceOnUse" gradientTransform="matrix(283.682,0,0,283.682,718.162,530.081)"><stop offset="0" style="stop-color:rgb(230,230,235);stop-opacity:1"/><stop offset="1" style="stop-color:rgb(219,219,226);stop-opacity:1"/></linearGradient>
        <linearGradient id="_Linear2" x1="0" y1="0" x2="1" y2="0" gradientUnits="userSpaceOnUse" gradientTransform="matrix(58.1548,0,0,58.1548,934.389,630.944)"><stop offset="0" style="stop-color:rgb(230,230,235);stop-opacity:1"/><stop offset="1" style="stop-color:rgb(219,219,226);stop-opacity:1"/></linearGradient>
        <linearGradient id="_Linear3" x1="0" y1="0" x2="1" y2="0" gradientUnits="userSpaceOnUse" gradientTransform="matrix(283.682,0,0,283.682,718.162,530.081)"><stop offset="0" style="stop-color:rgb(207,207,217);stop-opacity:1"/><stop offset="1" style="stop-color:rgb(198,198,209);stop-opacity:1"/></linearGradient>
    </defs>
</svg>
