<?xml version="1.0" standalone="no"?>
<!DOCTYPE svg PUBLIC "-//W3C//DTD SVG 1.1//EN" "http://www.w3.org/Graphics/SVG/1.1/DTD/svg11.dtd">
<svg xmlns="http://www.w3.org/2000/svg">
<metadata>Copyright (C) 2021 by original authors @ fontello.com</metadata>
<defs>
<font id="fontello" horiz-adv-x="1000" >
<font-face font-family="fontello" font-weight="400" font-stretch="normal" units-per-em="1000" ascent="850" descent="-150" />
<missing-glyph horiz-adv-x="1000" />
<glyph glyph-name="ok" unicode="&#xe800;" d="M875 588l-535-600-340 338 123 124 196-195 420 457z" horiz-adv-x="875" />

<glyph glyph-name="step-arrow-2" unicode="&#xe801;" d="M71-139c-16 0-32 5-45 17-27 25-28 67-3 94l352 374-352 374c-25 26-24 68 3 93 27 25 68 24 93-3l395-419c24-26 24-65 0-90l-395-420c-13-13-30-20-48-20z" horiz-adv-x="537" />

<glyph glyph-name="arrow-left" unicode="&#xe802;" d="M174 405c-10-10-14-22-14-34l0-1c0-12 4-24 14-33 0 0 272-272 272-272 18-19 49-19 68 0 18 18 18 49 0 68l-238 238 238 238c18 18 18 49 0 68-19 18-50 18-68 0l-272-272z" horiz-adv-x="731" />

<glyph glyph-name="arrow-right" unicode="&#xe803;" d="M514 405c9-10 14-22 14-34l0-1c0-12-5-24-14-33 0 0-272-272-272-272-19-19-50-19-68 0-19 18-19 49 0 68l238 238-238 238c-19 18-19 49 0 68 18 18 49 18 68 0l272-272z" horiz-adv-x="731" />

<glyph glyph-name="block" unicode="&#xe804;" d="M1000 650c0 110-90 200-200 200l-600 0c-110 0-200-90-200-200l0-600c0-110 90-200 200-200l600 0c110 0 200 90 200 200l0 600z" horiz-adv-x="1000" />

<glyph glyph-name="block-base" unicode="&#xe805;" d="M450 210c0 50-40 90-90 90l-270 0c-50 0-90-40-90-90l0-270c0-50 40-90 90-90l270 0c50 0 90 40 90 90l0 270z m550 550c0 50-40 90-90 90l-270 0c-50 0-90-40-90-90l0-270c0-50 40-90 90-90l270 0c50 0 90 40 90 90l0 270z m0-550c0 50-40 90-90 90l-270 0c-50 0-90-40-90-90l0-270c0-50 40-90 90-90l270 0c50 0 90 40 90 90l0 270z" horiz-adv-x="1000" />

<glyph glyph-name="cart" unicode="&#xe806;" d="M455-59c0-50-42-91-91-91-50 0-91 41-91 91 0 50 41 91 91 91 49 0 91-41 91-91z m636 0c0-50-41-91-91-91-50 0-91 41-91 91 0 50 41 91 91 91 50 0 91-41 91-91z m91 773l0-364c0-23-18-43-41-45l-741-87c3-16 9-33 9-50 0-16-10-31-17-45l654 0c24 0 45-21 45-46 0-25-21-45-45-45l-728 0c-25 0-45 20-45 45 0 22 32 76 43 98l-126 584-144 0c-25 0-46 21-46 46 0 24 21 45 46 45l181 0c48 0 49-57 56-91l853 0c25 0 46-20 46-45z" horiz-adv-x="1182" />

<glyph glyph-name="clock" unicode="&#xe807;" d="M855 704c-91 90-216 146-354 146-138 0-263-55-354-146-90-91-146-216-146-354 0-138 56-264 146-354 91-90 216-146 354-146 138 0 263 56 354 146 90 90 146 216 146 354 0 138-56 263-146 354z m-132-465c-11-23-38-31-61-20l-181 91c-15 7-26 23-26 40v273c0 25 21 45 46 45 25 0 45-20 45-45v-245l157-78c22-11 32-38 20-61z" horiz-adv-x="1000" />

<glyph glyph-name="coupon" unicode="&#xe808;" d="M357 850v-71h72v71h657c110 0 200-90 200-200v-600c0-110-90-200-200-200h-886c-110 0-200 90-200 200v157c79 0 143 64 143 143s-64 143-143 143v157c0 110 90 200 200 200h157z m72-857h-72v-72h72v72z m0 143h-72v-72h72v72z m0 143h-72v-72h72v72z m0 143h-72v-72h72v72z m0 142h-72v-71h72v71z m0 143h-72v-71h72v71z" horiz-adv-x="1286" />

<glyph glyph-name="dialog" unicode="&#xe809;" d="M1000 375l0 25c0 1 0 2 0 3-7 117-56 223-132 302-80 84-191 138-315 145-1 0-2 0-3 0l-24 0c-71 1-144-15-214-50-61-31-114-75-157-127-66-82-105-185-105-297-1-64 13-131 41-194l-88-266c-4-10-4-21 0-32 8-26 37-40 63-31l266 88c58-26 124-41 193-41 69 0 136 15 197 43 96 44 177 119 228 219 32 63 50 136 50 213z m-100 0c0-61-15-119-39-167-40-80-104-139-180-174-48-22-102-34-156-34-61 0-119 15-167 39-12 7-26 8-39 3l-190-63 63 190c5 13 3 27-2 39-28 54-41 112-40 166 0 90 31 171 83 236 34 41 76 76 125 100 54 28 112 41 167 40l22 0c98-5 186-48 249-114 60-62 98-146 104-237l0-24z" horiz-adv-x="1063" />

<glyph glyph-name="dialog-2" unicode="&#xe80a;" d="M1000 375l0 28c-7 117-56 223-132 302-80 84-191 138-315 145l-27 0c-71 1-144-15-214-50-61-31-114-75-157-127-66-82-105-185-105-297-1-64 13-131 41-194l-88-266c-4-10-4-21 0-32 8-26 37-40 63-31l266 88c58-26 124-41 193-41 69 0 136 15 197 43 96 44 177 119 228 219 32 63 50 136 50 213z" horiz-adv-x="1063" />

<glyph glyph-name="dialog-3" unicode="&#xe80b;" d="M1000 375l0 28c-7 117-56 223-132 302-80 84-191 138-315 145l-28 0c-70 1-144-15-212-50-62-31-115-75-158-127-66-82-105-185-105-297-1-64 13-131 41-194l-88-266c-4-10-4-21 0-32 8-26 37-40 63-31l266 88c58-26 124-41 193-41 69 0 136 15 198 43 95 44 177 119 227 219 32 63 50 136 50 213z m-628 38c35 0 63-28 63-63 0-34-28-62-63-62-34 0-62 28-62 62 0 35 28 63 62 63z m167 0c34 0 62-28 62-63 0-34-28-62-62-62-35 0-63 28-63 62 0 35 28 63 63 63z m172 0c35 0 63-28 63-63 0-34-28-62-63-62-34 0-62 28-62 62 0 35 28 63 62 63z" horiz-adv-x="1042" />

<glyph glyph-name="graduate" unicode="&#xe80c;" d="M677 128c-21-13-49-20-77-20-28 0-56 7-77 20l-349 214c0 0-31 20-31-24l0-214c0-112 205-233 457-233 253 0 457 121 457 233l0 226c0 35-22 18-22 18l-358-220z m503 384c27 17 27 44 0 60l-531 266c-27 16-71 16-98 0l-531-266c-27-16-27-43 0-60l531-325c27-17 71-17 98 0m509-157l0 359c0 0 0 17-10 12-8-5-28-16-35-22-8-7-6-23-6-23l0-326c0-5-4-7-6-8-18-11-31-31-31-54 0-34 28-62 62-62 35 0 63 28 63 62 0 23-13 43-31 54-2 1-6 3-6 8z" horiz-adv-x="1200" />

<glyph glyph-name="heart" unicode="&#xe80d;" d="M600 680c126 206 379 206 505 103 127-103 127-309 0-514-88-155-315-309-505-412-189 103-417 257-505 412-127 205-127 411 0 514 126 103 379 103 505-103z" horiz-adv-x="1267" />

<glyph glyph-name="loginout" unicode="&#xe80e;" d="M490-56c0-22 10-74-25-74l-245 0c-121 0-220 99-220 221l0 539c0 121 99 220 220 220l245 0c13 0 25-11 25-24 0-22 10-74-25-74l-245 0c-67 0-122-55-122-122l0-539c0-67 55-123 122-123l221 0c19 0 49 4 49-24z m710 416c0-13-5-25-14-34l-417-417c-9-9-21-14-34-14-27 0-49 22-49 49l0 220-343 0c-27 0-49 23-49 49l0 294c0 27 22 49 49 49l343 0 0 221c0 26 22 49 49 49 13 0 25-6 34-15l417-416c9-9 14-22 14-35z" horiz-adv-x="1200" />

<glyph glyph-name="mail" unicode="&#xe80f;" d="M1173 850l-1060 0c-17 0-34-4-48-11l575-576 129 124c0 0 0 0 0 0 0 0 0 0 0 0l452 452c-15 7-31 11-48 11z m101-65l-425-425 425-425c7 15 12 31 12 49l0 753c0 17-5 34-12 48z m-1263 0c-7-14-11-31-11-48l0-753c0-18 4-34 11-49l425 425-425 425z m785-478l-129-124c-7-7-17-11-27-11-9 0-19 4-26 11l-124 124-425-425c14-7 31-11 48-11l1060 0c17 0 33 4 48 11l-425 425z" horiz-adv-x="1286" />

<glyph glyph-name="cancel" unicode="&#xe810;" d="M452 194q18-18 18-43t-18-43q-18-16-43-16t-43 16l-132 152-132-152q-18-16-43-16t-43 16q-16 18-16 43t16 43l138 156-138 158q-16 18-16 43t16 43q18 16 43 16t43-16l132-152 132 152q18 16 43 16t43-16q18-18 18-43t-18-43l-138-158z" horiz-adv-x="470" />

<glyph glyph-name="order" unicode="&#xe811;" d="M883 552h-105v27c0 150-125 271-278 271s-278-121-278-271v-27h-105c-65 0-117-51-117-113v-475c0-63 52-114 117-114h766c65 0 117 51 117 114v475c0 62-52 113-117 113z m-605 27c0 120 99 217 222 217s222-97 222-217v-27h-444v27z m55-270c0-15-12-27-27-27h-56c-16 0-28 12-28 27v108c0 15 13 27 28 27h56c15 0 27-12 27-27v-108z m445 0c0-15-12-27-28-27h-55c-16 0-28 12-28 27v108c0 15 12 27 28 27h55c16 0 28-12 28-27v-108z" horiz-adv-x="1001" />

<glyph glyph-name="person" unicode="&#xe812;" d="M444 350c141 0 254 112 254 250 0 138-113 250-254 250-140 0-253-112-253-250 0-138 113-250 253-250z m178-62l-33 0c-44-20-93-32-145-32-51 0-100 12-144 32l-33 0c-148 0-267-118-267-263l0-81c0-52 43-94 95-94l699 0c52 0 95 42 95 94l0 81c0 145-120 263-267 263z" horiz-adv-x="889" />

<glyph glyph-name="projects" unicode="&#xe813;" d="M824 850h-589v-59h589v59z m117-118h-823v-58h823v58z m3-117h-829c-64 0-115-52-115-115v-535c0-64 51-115 115-115h829c64 0 115 51 115 115v535c0 63-51 115-115 115z m-252-408l-238-147c-4-3-9-4-14-4-5 0-10 1-14 4-9 5-14 15-14 25v294c0 11 5 21 14 26 8 5 19 5 28 0l238-147c9-5 14-15 14-26 0-10-5-20-14-25z" horiz-adv-x="1059" />

<glyph glyph-name="rocket" unicode="&#xe814;" d="M291 584c-74-100-125-195-144-237-6-12-18-19-31-18l-32 1c-78 2-114 98-56 151l120 108c32 30 74 46 116 46 27 1 43-30 27-51z m494-469c0 26-30 42-51 26-102-74-196-125-237-144-12-6-19-18-19-30l1-33c3-78 99-113 151-56l109 120c29 32 45 74 46 117z m-690-19l42 41c12 13 12 33 0 46-13 13-33 13-46 0l-42-42c-20-20-5-55 23-55 8 0 17 3 23 10z m198-198l41 42c13 12 13 33 0 45-12 13-33 13-45 0l-42-42c-20-20-6-55 23-55 8 0 16 4 23 10z m-171 29l142 142c12 12 12 33 0 45-13 13-33 13-46 0l-142-142c-20-20-5-55 23-55 8 0 17 3 23 10z m673 313c-46-40-94-75-144-108-12-7-27-6-36 4l-329 329c-10 10-12 25-4 36 36 55 71 102 111 148 134 156 341 228 544 192l23-5c13-2 24-12 26-26l4-23c36-195-29-404-195-547z m-28 377c-54 54-143 54-197 0-54-54-54-142 0-197 54-54 142-54 197 0 54 55 54 143 0 197z m-505-220c-13 14-36 10-45-7-7-11-12-23-18-35-20-40-12-88 20-120l166-166c20-20 47-31 74-31 28 0 45 10 81 29 17 9 21 32 7 46l-285 284z" horiz-adv-x="1000" />

<glyph glyph-name="search" unicode="&#xe815;" d="M692 427c0 148-120 269-269 269-148 0-269-121-269-269 0-148 121-269 269-269 149 0 269 121 269 269z m308-500c0-42-35-77-77-77-20 0-40 8-54 23l-206 205c-70-48-155-74-240-74-234 0-423 189-423 423 0 234 189 423 423 423 234 0 423-189 423-423 0-85-26-170-74-240l206-206c14-14 22-34 22-54z" horiz-adv-x="1000" />

<glyph glyph-name="step-check" unicode="&#xe816;" d="M1160 850l173-173-807-813-526 520 173 173 353-346 634 639z" horiz-adv-x="1333" />

<glyph glyph-name="trash" unicode="&#xe817;" d="M734 725l-172 0 0 31c0 52-42 94-93 94l-125 0c-52 0-94-42-94-94l0-31-172 0c-43 0-78-35-78-78l0-63c0-17 14-31 31-31l750 0c17 0 31 14 31 31l0 63c0 43-35 78-78 78z m-422 31c0 18 14 32 32 32l125 0c17 0 31-14 31-32l0-31-188 0 0 31z m-253-265c-5 0-10-5-9-11l25-541c3-50 44-89 94-89l474 0c51 0 92 39 94 89l26 541c0 6-4 11-10 11l-694 0z m472-78c0 17 14 31 31 31 18 0 32-14 32-31l0-407c0-17-14-31-32-31-17 0-31 14-31 31l0 407z m-156 0c0 17 14 31 31 31 17 0 31-14 31-31l0-407c0-17-14-31-31-31-17 0-31 14-31 31l0 407z m-156 0c0 17 14 31 31 31 17 0 31-14 31-31l0-407c0-17-14-31-31-31-17 0-31 14-31 31l0 407z" horiz-adv-x="846" />

<glyph glyph-name="tri" unicode="&#xe818;" d="M666-150l667 1000-1334 0 667-1000z" horiz-adv-x="1333" />

<glyph glyph-name="viewed" unicode="&#xe819;" d="M885 850l-770 0c-64 0-115-51-115-115l0-562c0-63 51-115 115-115l52 0 0-177c0-12 7-24 19-29 4-1 8-2 12-2 8 0 16 3 22 9l199 199 466 0c64 0 115 52 115 115l0 562c0 64-51 115-115 115z m-385-667c-149 0-271 122-271 271 0 150 122 271 271 271 149 0 271-121 271-271 0-149-122-271-271-271z m63 167c-11 0-22 4-30 12l-62 63c-8 8-13 18-13 29l0 104c0 23 19 42 42 42 23 0 42-19 42-42l0-87 50-50c16-16 16-42 0-59-8-8-19-12-29-12z" horiz-adv-x="1000" />

<glyph glyph-name="step-arrow-1" unicode="&#xe81a;" d="M532-136c-17 0-33 6-46 18-26 25-27 67-2 93l352 374-352 375c-25 26-24 68 2 93 27 25 69 23 94-3l394-419c24-26 24-65 0-91l-394-419c-13-14-31-21-48-21z m-461 0c-17 0-33 6-46 18-26 25-27 67-2 93l352 374-352 374c-26 27-24 68 2 93 27 25 69 24 94-2l394-420c24-25 24-65 0-90l-394-419c-13-14-31-21-48-21z" horiz-adv-x="999" />

<glyph glyph-name="video" unicode="&#xe81b;" d="M824 850h-589v-59h589v59z m117-118h-823v-58h823v58z m3-117h-829c-64 0-115-52-115-115v-535c0-64 51-115 115-115h829c64 0 115 51 115 115v535c0 63-51 115-115 115z m-252-408l-238-147c-4-3-9-4-14-4-5 0-10 1-14 4-9 5-14 15-14 25v294c0 11 5 21 14 26 8 5 19 5 28 0l238-147c9-5 14-15 14-26 0-10-5-20-14-25z" horiz-adv-x="1059" />

<glyph glyph-name="share" unicode="&#xe81c;" d="M552 619l-241-141c0 0 0 0-1 1-32 32-78 53-128 53-50 0-96-21-129-53-33-33-53-79-53-129 0-50 20-96 53-129 33-32 79-53 129-53 50 0 96 21 128 53 1 1 1 1 1 1l241-141c-4-15-7-32-7-49 0-50 21-96 54-129 33-33 78-53 128-53 50 0 96 20 129 53 33 33 53 79 53 129 0 50-20 96-53 128-33 33-79 54-129 54-50 0-95-21-128-54 0 0-1 0-1 0l-241 141c4 15 7 32 7 49 0 17-3 34-7 49l241 141c0 0 0 0 1 0 33-33 78-54 128-54 50 0 96 21 129 54 33 33 53 78 53 128 0 50-20 96-53 129-33 33-79 53-129 53-50 0-95-20-128-53-33-33-54-79-54-129 0-17 3-34 7-49z" horiz-adv-x="950" />

<glyph glyph-name="lock" unicode="&#xe81d;" d="M711 461l-100 0 0 134c0 160-74 255-222 255-148 0-222-95-222-255l0-134-111 0c-31 0-56-36-56-66l0-434c0-30 24-63 53-73l66-21c29-9 78-17 109-17l322 0c31 0 79 8 108 17l67 22c29 9 53 42 53 72l0 434c0 30-36 66-67 66z m-211 0l-222 0 0 156c0 80 44 122 111 122 67 0 111-42 111-122l0-156z" horiz-adv-x="833" />

<glyph glyph-name="plus" unicode="&#xe81e;" d="M729 454q44 0 74-31t31-73-31-73-74-30l-208 3 0-212q0-43-30-73t-75-31-73 31-30 73l3 212-212-3q-44 0-74 30t-30 73 30 73 74 31l212 0-3 209q0 42 30 73t73 31 75-31 30-73l0-209 208 0z" horiz-adv-x="834" />

<glyph glyph-name="address" unicode="&#xe81f;" d="M426 800q20 0 20-20l0-860q0-20-20-20l-46 0q-20 0-20 20l0 440-176 0q-16 0-28 6-12 2-26 12l-120 82q-10 6-10 16t10 16l120 82q14 10 26 12 8 4 28 4l176 0 0 190q0 20 20 20l46 0z m564-208q10-6 10-16t-10-16l-118-82q-22-12-26-12-14-6-28-6l-302 0-40 230 342 0q18 0 28-4t26-12z" horiz-adv-x="1000" />

<glyph glyph-name="calendar" unicode="&#xe820;" d="M227 805l0-46-91 0c-37 0-71-15-96-40-25-24-40-59-40-96l0-637c0-37 15-71 40-96 25-25 59-40 96-40l637 0c37 0 72 15 96 40 25 25 40 59 40 96l0 637c0 37-15 72-40 96-24 25-59 40-96 40l-91 0 0 46c0 25-20 45-46 45-25 0-45-20-45-45l0-46-273 0 0 46c0 25-20 45-45 45-25 0-46-20-46-45z m-136-410l727 0 0-409c0-12-5-23-13-32-8-8-20-13-32-13l-637 0c-12 0-23 5-32 13-8 9-13 20-13 32l0 409z m605-284c0 13-11 25-25 25l-49 0c-14 0-25-12-25-25l0-50c0-14 11-25 25-25l49 0c14 0 25 11 25 25l0 50z m-383 0c0 13-12 25-25 25l-50 0c-14 0-25-12-25-25l0-50c0-14 11-25 25-25l50 0c13 0 25 11 25 25l0 50z m191 0c0 13-11 25-25 25l-49 0c-14 0-25-12-25-25l0-50c0-14 11-25 25-25l49 0c14 0 25 11 25 25l0 50z m192 169c0 13-11 25-25 25l-49 0c-14 0-25-12-25-25l0-50c0-14 11-25 25-25l49 0c14 0 25 11 25 25l0 50z m-383 0c0 13-12 25-25 25l-50 0c-14 0-25-12-25-25l0-50c0-14 11-25 25-25l50 0c13 0 25 11 25 25l0 50z m191 0c0 13-11 25-25 25l-49 0c-14 0-25-12-25-25l0-50c0-14 11-25 25-25l49 0c14 0 25 11 25 25l0 50z" horiz-adv-x="950" />

<glyph glyph-name="line" unicode="&#xe821;" d="M837 449c15 0 27-13 27-27 0-15-12-28-27-28l-76 0 0-48 76 0c15 0 27-12 27-28 0-14-12-27-27-27l-103 0c-15 0-28 13-28 27l0 207c0 14 13 27 28 27l103 0c15 0 27-13 27-27 0-15-12-28-27-28l-76 0 0-48 76 0z m-167-131c0-11-7-22-19-25-2-1-5-2-8-2-9 0-17 4-22 11l-106 144 0-128c0-14-12-27-27-27-15 0-27 13-27 27l0 207c0 11 7 22 19 25 2 1 5 2 8 2 8 0 16-5 21-11l107-144 0 128c0 14 12 27 27 27 15 0 27-13 27-27l0-207z m-248 0c0-14-12-27-27-27-15 0-27 13-27 27l0 207c0 14 12 27 27 27 15 0 27-13 27-27l0-207z m-107-27l-103 0c-14 0-27 13-27 27l0 207c0 14 13 27 27 27 15 0 28-13 28-27l0-179 75 0c16 0 28-12 28-28 0-14-12-27-28-27z m722 138c0 232-233 421-519 421-285 0-518-189-518-421 0-208 184-382 434-415 16-3 39-11 45-25 5-13 4-33 2-47l-7-44c-2-13-11-51 45-28 56 23 299 176 408 301 74 82 110 166 110 258z" horiz-adv-x="1040" />

<glyph glyph-name="fb" unicode="&#xe822;" d="M538 682l-154 0c-18 0-38-24-38-56l0-111 192 0-29-159-163 0 0-475-182 0 0 475-164 0 0 159 164 0 0 93c0 133 93 242 220 242l154 0 0-168z" horiz-adv-x="545" />

<glyph glyph-name="twitter" unicode="&#xe823;" d="M1215 732c-46-20-94-33-143-39 52 31 91 80 109 138-48-28-101-49-158-60-47 50-113 79-182 79-137 0-250-113-250-249 0-20 2-39 7-57-208 9-392 109-515 260-22-38-34-82-34-126 0-87 45-163 111-208-39 2-78 12-113 32l0-3c0-119 85-222 201-245-37-10-75-12-113-5 33-101 127-171 234-173-88-69-197-107-310-107-19 0-39 1-59 4 114-74 248-113 383-112 460 0 710 380 710 709 0 11 0 21 0 32 49 35 91 79 124 129l-2 1z" horiz-adv-x="1267" />

<glyph glyph-name="linkedin" unicode="&#xe824;" d="M963-111l-200 0 0 312c0 75-1 170-103 170-104 0-120-81-120-164l0-318-199 0 0 642 191 0 0-88 3 0c26 51 91 104 189 104 201 0 239-133 239-306l0-352z m-747 0l-200 0 0 642 200 0 0-642z m-100 730c-64 0-116 52-116 115 0 64 52 116 116 116 64 0 115-52 115-116 0-63-51-115-115-115z" horiz-adv-x="1000" />

<glyph glyph-name="up-open-big" unicode="&#xe825;" d="M804 130l-372 358-370-358q-26-22-50 0-24 24 0 50l396 390q26 26 48 0l396-390q24-26 0-50-26-22-48 0z" horiz-adv-x="864" />

<glyph glyph-name="block-2" unicode="&#xe82c;" d="M450 760c0 50-40 90-90 90l-270 0c-50 0-90-40-90-90l0-270c0-50 40-90 90-90l270 0c50 0 90 40 90 90l0 270z m0-550c0 50-40 90-90 90l-270 0c-50 0-90-40-90-90l0-270c0-50 40-90 90-90l270 0c50 0 90 40 90 90l0 270z m550 550c0 50-40 90-90 90l-270 0c-50 0-90-40-90-90l0-270c0-50 40-90 90-90l270 0c50 0 90 40 90 90l0 270z m0-550c0 50-40 90-90 90l-270 0c-50 0-90-40-90-90l0-270c0-50 40-90 90-90l270 0c50 0 90 40 90 90l0 270z" horiz-adv-x="1000" />

<glyph glyph-name="more" unicode="&#xe87b;" d="M1170 425l-1056 0c-37 0-67-30-67-67 0-37 30-67 67-67l1067 0c4 0 8 1 12 2l-264-265c-26-26-26-68 0-94 26-26 68-26 94 0l345 345c9 3 19 8 26 16 9 10 15 20 18 32 13 25 9 57-12 78-11 12-26 18-41 20l-342 342c-26 26-68 26-94 0-26-26-26-68 0-95l247-247z m77-77c0-1 0-1-1-2l1 1 0 1z" horiz-adv-x="1467" />
</font>
</defs>
</svg>
